<svg viewBox="0 0 49.89 26.44" xmlns="http://www.w3.org/2000/svg"><path d="m49.11 12.52c0-.06-.09-.22-.09-.22l-.82-.62v-.19c0-.05-.14-.13-.21-.18s-.05-.1 0-.1.47-.2.51-.21a.45.45 0 0 0 .09-.07h.15.92v-.44l-.21-.16h-.82a7.9 7.9 0 0 0 -1.12-.2l.08-.17.44-.3c.13-.09.58-.47.67-.55s.11-.13.06-.21-.4 0-.4 0 .37-.36.43-.44a.26.26 0 0 0 .05-.17 1.91 1.91 0 0 0 .23-.39 14.56 14.56 0 0 0 -2-1c-.81-.36-2.36-1-2.36-1a11.94 11.94 0 0 0 1.11-.59c.32-.16.41-.36.41-.46s-.11-.29-.56-.33a3.26 3.26 0 0 0 -1.3.3l-.49.18-.12-.11c-.11-.11-.39 0-.61 0a19.82 19.82 0 0 1 -2.48.74 25.52 25.52 0 0 1 -2.82.33c-.21 0-.39.27-.6.77a2.64 2.64 0 0 0 -.21.89s-.16-.17-.23-.14-1 .19-1.91.43a25.27 25.27 0 0 1 -3.69.54l-2.55.11a5.91 5.91 0 0 0 -.55-1.22 8.59 8.59 0 0 0 -2.53-2 9.79 9.79 0 0 0 -3.89-.88 13.47 13.47 0 0 0 -3.75.7 19 19 0 0 0 -1.86.77 6.38 6.38 0 0 0 -.87-.47s0-.1 0-.16v-.2a.24.24 0 0 0 0-.13.93.93 0 0 0 -.21-.27.79.79 0 0 0 -.28-.21.1.1 0 0 0 -.12.06s0 0-.14 0a.91.91 0 0 0 -.4.13h-.12v-.18s.24-.23.21-.3-.15-.14-.15-.14l-.1.1a1.87 1.87 0 0 0 0-.4 3.51 3.51 0 0 0 -1.19-.08c-.45 0-.48.17-.48.17v.27a4 4 0 0 0 -.66 0c-.14 0-.12.15-.12.15v.37a.23.23 0 0 0 -.24 0c-.07.05-.12.15-.09.2s.12.21.12.24-.11 0-.17.06 0 .22 0 .28-.08.12-.15.17a.85.85 0 0 0 -.17.25.52.52 0 0 0 -.06.22c0 .06-.16.2-.16.2s-.06 0-.24-.15a3.05 3.05 0 0 1 -.54-.47c0-.11-.19-.31-.2-.37a.74.74 0 0 1 0-.2 1.18 1.18 0 0 1 .17-.25.49.49 0 0 0 .13-.23h.12c.05 0 .16-.1.16-.1a.41.41 0 0 0 .25.11.89.89 0 0 0 .4-.2c.12-.1 0-.48 0-.48a2.39 2.39 0 0 0 .58-.17 1.37 1.37 0 0 0 .64-.42 2.41 2.41 0 0 0 1-.33 3.44 3.44 0 0 0 .95-1.15c0-.16-.31-.2-.4-.35s-.32-1.16-.41-1.39-.26-.06-.48 0a30.66 30.66 0 0 0 -3.28 1.7 24.39 24.39 0 0 0 -2.56 1.83s-.07-.11-.15-.05a6 6 0 0 0 -.9.69 2.53 2.53 0 0 0 -.53.63c-.07.14 0 .18 0 .18s-.68.73-.83.94-.7.84-.78 1a12.16 12.16 0 0 0 -1.45 2.56 8.34 8.34 0 0 0 -.32 1.58c0 .06.1 0 .1 0a.77.77 0 0 0 0 .53 2.2 2.2 0 0 0 .55.24c.32.12.38.1.38.1a1.18 1.18 0 0 0 .18.08 5.81 5.81 0 0 1 .65.29 5 5 0 0 1 .77.48 4.39 4.39 0 0 0 -.7.28 10 10 0 0 0 -2.42 1.68 9 9 0 0 0 -1.37 1.76c-.08.13 0 .2.12.16l.67-.23a7 7 0 0 0 -.67 2.95 6.53 6.53 0 0 0 1.34 4 7 7 0 0 0 3.23 2.41 7.52 7.52 0 0 0 3.35.36 6.64 6.64 0 0 0 3.58-1.71 6.12 6.12 0 0 0 1.8-2.82c0-.12.08-.08.08-.08 0 .27.08 1.19.07 1.31a3.39 3.39 0 0 1 -.13.55c0 .12 0 .19.55.28s2.66.26 2.71.25.2 0 .29 0 .49-.24.56-.27a.55.55 0 0 1 .28 0 9.16 9.16 0 0 0 1.45.17h1.22a.27.27 0 0 0 .08 0l1.3-.19c.12 0 1.49-.05 1.49-.05h.23s.34 0 .4 0l.16.06s.66.05.7.07a.21.21 0 0 1 .08.05l2.73-.05c.66 0 .84 0 1.05-.17a.46.46 0 0 0 .19-.39s2-.81 2.22-.85a5 5 0 0 0 1.16-.13 3.26 3.26 0 0 0 1-.53.11.11 0 0 1 .06 0l.2-.07h.11a4.3 4.3 0 0 0 .7 1.56 7.25 7.25 0 0 0 3 2.64 7.15 7.15 0 0 0 5.54.11 7.39 7.39 0 0 0 4-3.46 6.89 6.89 0 0 0 .71-4.43 6.8 6.8 0 0 0 -1.23-2.93 2 2 0 0 0 .08-.51c0-.21 0-.71-.28-.88a3.84 3.84 0 0 0 -1.31-.11 2.9 2.9 0 0 0 -.59-.42.39.39 0 0 1 0-.26c0-.08.28-.58.19-.83s-1-.26-1.1-.25a1.49 1.49 0 0 0 -.54.18l-.65.33a7.56 7.56 0 0 0 -1.52-.18 10.88 10.88 0 0 0 -1.57.14l.09-.18-.05-.08a.16.16 0 0 0 -.09 0 .08.08 0 0 1 -.08 0 10.34 10.34 0 0 1 1.33-.63l1.63-.5a2.14 2.14 0 0 0 .78-.19h.47c-.11.05 0 .14 0 .14s.56.2.65.21.94-.06.94-.06l.67.29 1 .4a1.28 1.28 0 0 1 .41.2c.1.09.89 1.23.89 1.23a6.17 6.17 0 0 0 .19.62c.05.12.11.08.16.07a.33.33 0 0 0 .11 0l1.5 2.13v-.39l-.45-1s.54.49.59.5 0 0 0 0-.71-2.58-.72-2.63zm-44.34 6.32c0-.08.09-.07.09-.07s.13.36.18.46 0 .16 0 .15a.34.34 0 0 1 -.21-.2c-.04-.18-.1-.27-.06-.34zm-.19.28s.18.26.24.37.06.15 0 .18a.22.22 0 0 1 -.21-.11.71.71 0 0 1 -.08-.3.29.29 0 0 1 .05-.14zm-1.89 1.05c-.06-.09-.17-.31-.09-1.14a4.11 4.11 0 0 1 .49-1.57.52.52 0 0 1 .37-.3c.15 0 .48.3.48.3a1.29 1.29 0 0 0 -.27.33 4.62 4.62 0 0 0 -.59 1.46 8.61 8.61 0 0 0 0 1 .28.28 0 0 1 -.11 0c-.11.08-.22 0-.28-.08zm2.09 3.07a3.84 3.84 0 0 1 -1.26-1 3.48 3.48 0 0 1 -.62-1.11c0-.19 0-.31 0-.37a.36.36 0 0 1 .16-.08 4.56 4.56 0 0 0 .48 1.09 4.45 4.45 0 0 0 1.1 1.14 3.17 3.17 0 0 0 .4.25s-.04.11-.26.08zm6.22-4.48a.21.21 0 0 0 .06-.11s0-.1.05-.06a.72.72 0 0 1 .17.46v.44l-.15-.14c-.12-.13-.16-.15-.18-.31a1.07 1.07 0 0 1 .05-.28zm-4 2.75a1 1 0 0 0 .34-.08.1.1 0 0 1 .16 0 .31.31 0 0 1 0 .26c0 .11 0 .2-.12.21a.92.92 0 0 1 -.22 0 .18.18 0 0 1 -.16-.03c-.07-.09-.21-.19-.21-.25s.13-.11.21-.11zm1.64 2c0 .11-.13.15-.25.21a4.77 4.77 0 0 1 -1.63.16 2.93 2.93 0 0 1 -1.19-.28.44.44 0 0 1 -.14-.35 4.24 4.24 0 0 0 1.72.22 3.29 3.29 0 0 0 1.35-.4 1 1 0 0 1 .12.22.31.31 0 0 1 .01.24zm.14-2a1.07 1.07 0 0 1 -.32.18c-.08 0-.12 0-.18-.08a.41.41 0 0 1 0-.29.53.53 0 0 1 .23 0 1.12 1.12 0 0 0 .25.11c.02-.01.05.04.01.07zm1.9.53a3.54 3.54 0 0 1 -1.19 1.16.39.39 0 0 1 -.37.08c-.11 0-.13-.06-.19-.17s-.13-.23-.13-.23a4.28 4.28 0 0 0 .84-.79c.3-.41.42-.62.52-.78s.32-.48.37-.57v-.08s.35.05.39.07a.42.42 0 0 1 .16.25 2.63 2.63 0 0 1 -.41 1.02zm.69-2a.4.4 0 0 1 -.15.31c-.12.08-.28.06-.29 0s0-.2 0-.28a1.62 1.62 0 0 0 .29-.15.36.36 0 0 0 .11-.17c.02-.11.04.14.03.25zm3.22-13.27a.09.09 0 0 1 -.08 0 .72.72 0 0 0 -.09-.24 1 1 0 0 1 -.1-.14l.13-.11a.29.29 0 0 1 .17-.06.29.29 0 0 0 .16-.09c0-.07 0-.08 0-.08h.06l.47.27s-.67.41-.72.45zm19.35 9.79-.19.51a.51.51 0 0 0 -.15 0c-.07 0-.08.09-.12.08s-.08-.05-.11-.06a.17.17 0 0 1 -.06 0 9.81 9.81 0 0 1 .13-1.08c.05-.08.46-.1.46-.1l.37.08a3.88 3.88 0 0 0 -.33.57zm.12-2.07a4.65 4.65 0 0 0 -.62 0c0-.08-.11-.28-.12-.35s0-.14.08-.15.36.21.51.24a.79.79 0 0 1 .28.08s.5.27.5.27zm2.37-1-.11-.28c0-.07 0-.1 0-.12s.64-.14.75-.18.14 0 .07.08a.8.8 0 0 1 -.23.22c-.1 0-.44.26-.46.28zm2.15 8.83a2.27 2.27 0 0 1 -.34.48.36.36 0 0 1 -.42 0 5.2 5.2 0 0 1 -.6-.55 4 4 0 0 1 -.3-.37.06.06 0 0 1 .07 0 .18.18 0 0 0 .19 0 .07.07 0 0 1 .11 0 .2.2 0 0 0 .22.07h.16s.15.07.21 0 .1 0 .13 0a.24.24 0 0 0 .22.05.1.1 0 0 1 .13 0s.06.13.23.06c0 .19.02.21-.01.29zm0-.49a.36.36 0 0 0 -.18 0c-.07 0-.1 0-.13 0a.31.31 0 0 0 -.16-.06c-.05 0-.07 0-.13 0s-.12-.11-.2-.11-.1 0-.14 0-.11-.11-.21-.11-.12.06-.17.05-.08-.12-.18-.12-.13 0-.17 0-.09-.08-.17-.1-.1 0-.14-.09l-.07-.15a.16.16 0 0 0 -.05-.07l.05-.13s0 0 .07 0a.23.23 0 0 0 .21 0l1.19-.14a3.08 3.08 0 0 0 .63.59.6.6 0 0 1 .07.2 2.46 2.46 0 0 1 0 .39s-.1-.1-.13-.12zm5-2.4a.64.64 0 0 1 .06-.1s.19 0 .53-.29a3.13 3.13 0 0 0 .58-.61c.07-.14.09-.2.12-.11a4.51 4.51 0 0 1 .1.76 3.27 3.27 0 0 1 -.1 1 .28.28 0 0 1 -.34.14c-.17 0-.64-.16-.75-.19s-.13-.06-.13-.06 0-.06-.05-.09a.1.1 0 0 1 0-.1.22.22 0 0 0 0-.15c0-.06-.06-.1-.09-.13a.12.12 0 0 1 .01-.04zm-1.58 2.9h.12a.2.2 0 0 0 .2-.09c.05-.1 0-.11.08-.13s.18 0 .22-.1 0-.11.09-.12.19 0 .21-.15 0-.11.06-.14.16 0 .17-.17 0-.12.07-.14a.27.27 0 0 0 .14-.22c0-.13 0-.12 0-.15s.13-.06.11-.19 0-.13 0-.15l.1-.11a3.83 3.83 0 0 1 .85.2c.14.1.14.27 0 .51a5.24 5.24 0 0 1 -.9 1.22 2.13 2.13 0 0 1 -1 .73.35.35 0 0 1 -.32-.13 5.6 5.6 0 0 1 -.26-.56s-.02-.06 0-.08zm-2.94 0h.07s.12.07.19 0a.1.1 0 0 1 .14 0 .26.26 0 0 0 .24.07c.15 0 .1 0 .16.05a.31.31 0 0 0 .23 0h.11a.2.2 0 0 0 .22 0c.07-.05.09 0 .12 0a.23.23 0 0 0 .26 0c.08-.07.11-.06.14 0a.22.22 0 0 0 .25 0c.09-.07.1-.05.13 0s.16.05.21 0 .08 0 .1.05a4.37 4.37 0 0 1 .19.45c0 .12.06.35-.15.45a3.53 3.53 0 0 1 -1.55.15 3 3 0 0 1 -1.33-.3.33.33 0 0 1 -.1-.43c.08-.08.31-.46.31-.46z"/></svg>