<svg viewBox="0 0 16.36 33.47" xmlns="http://www.w3.org/2000/svg"><path d="m16.36 24.05c0-.26-.41-.56-.41-.56s-.47-.36-.76-.64a7.52 7.52 0 0 0 -1-.72l-.11-.41s0-.14 0-.21 0-.22 0-.22a.55.55 0 0 0 .09-.28.34.34 0 0 0 0-.14c0-.05-.09-.06-.18-.06l-.29.06a.87.87 0 0 0 -.23-.48.33.33 0 0 0 -.47-.09.39.39 0 0 0 -.12.19h-.08a.25.25 0 0 0 -.1 0s0-.15 0-.23a.94.94 0 0 0 -.09-.18.7.7 0 0 0 .16-.19l.13-.3a1.83 1.83 0 0 0 .5-.68 8.26 8.26 0 0 0 .4-2c.1-.79.24-2.23.27-2.8s.18-3.12.19-3.5 0-2 0-2.13a1.58 1.58 0 0 0 -.07-.34 1.1 1.1 0 0 0 -.06-.39c0-.15-.26-.82-.35-1a3.93 3.93 0 0 1 -.17-.71l.39.26a.16.16 0 0 0 .13.09l.68.42c.11 0 .26-.06.32-.17s.09-.25 0-.3l-.68-.47c0-.08-.13-.07-.13-.07s-.51-.31-.65-.42-.11-.17 0-.12 1.12.57 1.23.63.23.09.29 0a.17.17 0 0 0 0-.26.16.16 0 0 0 -.21 0l-.24-.09c-.16-.06-1.12-.63-1.12-.63a6.66 6.66 0 0 0 0-1.31 1.26 1.26 0 0 0 -.62-.92 3 3 0 0 0 -.48-.32.23.23 0 0 0 0-.14c0-.07-.2-.27-.18-.33s0-.17 0-.17a.33.33 0 0 1 .1-.14 1.61 1.61 0 0 1 .66-.18c.38 0 .71-.13.71-.13-.1.18 0 .26.26.66a2.09 2.09 0 0 0 .68.76 2.09 2.09 0 0 0 1.08 0 1 1 0 0 0 .48-.69c.06-.26-.45-.68-.83-.92a1.06 1.06 0 0 0 -.57-.21 8.31 8.31 0 0 0 -1.82.28 9.8 9.8 0 0 0 -1.09.24c-.12-.12-.29-.17-.8-.23a1.51 1.51 0 0 1 -1-.44 3.94 3.94 0 0 0 -1.89-.72 3.45 3.45 0 0 0 -1.89.65l-.62.43c-.08 0-.21 0-.56.06a3.21 3.21 0 0 0 -.58.12l-.47-.05c-.37 0-1.74-.35-2-.37s-.26 0-.26 0a.69.69 0 0 0 -.56.16 4.65 4.65 0 0 0 -.86.69c-.13.18-.08.27 0 .49a1.24 1.24 0 0 0 .37.49 2.9 2.9 0 0 0 .93 0 .65.65 0 0 0 .5-.31c.17-.23.55-.81.61-.91a.25.25 0 0 0 0-.22h.08l1 .18c.33.07.33.21.33.21l-.13.22c0 .09-.19.34-.19.36s0 .08 0 .08a2.47 2.47 0 0 0 -.28.2 2.47 2.47 0 0 0 -.67.63 2.61 2.61 0 0 0 -.15 1v.76s-1.14.52-1.21.55a.38.38 0 0 1 -.14 0 .2.2 0 0 0 -.19 0 .15.15 0 0 0 -.1.19.17.17 0 0 0 .2.13 1.17 1.17 0 0 0 .4-.1c.19-.06.93-.38 1-.4s.13 0 .12 0v.09l-.73.46a.81.81 0 0 0 -.18.08s-.58.39-.64.45a.14.14 0 0 0 0 .18.92.92 0 0 0 .22.32.14.14 0 0 0 .15 0l.7-.41a.23.23 0 0 0 .11-.11l.38-.25a3.48 3.48 0 0 1 -.09.47c0 .21-.28.75-.39 1.07a2.48 2.48 0 0 0 -.13.58 14.32 14.32 0 0 0 0 2.76c.09 1.38.15 3 .24 4.24s.34 2.75.39 3a2.5 2.5 0 0 0 .37 1 6 6 0 0 1 .49.68 2.9 2.9 0 0 0 -.4 0c-.08 0-.11.13-.11.21a.19.19 0 0 0 .06.12.46.46 0 0 0 -.29.21.83.83 0 0 0 -.13.35h-.15c-.06 0-.29-.05-.37 0a.1.1 0 0 0 0 .12.88.88 0 0 0 0 .17.19.19 0 0 0 .06.12s-.07.28-.08.38 0 .11 0 .11l-.05.36s-.11.05-.55.32a12 12 0 0 0 -1.19 1c-.41.34-.69.53-.68.84a2.8 2.8 0 0 0 .56 1.13 9.77 9.77 0 0 0 1.07 1.2 1.27 1.27 0 0 0 1 .48 1.55 1.55 0 0 0 1-.4c.16-.18.15-.48.22-.9s.23-1.42.23-1.42a.68.68 0 0 0 .15-.06 1 1 0 0 0 .17-.19v.36s-.05 1.38 0 1.53a5.37 5.37 0 0 0 .11.64c0 .16.15.85.15.91s.06.19.15.19h.3a.13.13 0 0 0 .13-.12v-.51h.11v.51.05.25h.06v.19s0 .74 0 .9a1 1 0 0 0 .08.29h.11.15v.06h.14a.64.64 0 0 0 .11-.25c0-.1 0-.55 0-.55h.23s0 2.84 0 3.41a1.25 1.25 0 0 0 .59 1.07 2.3 2.3 0 0 0 3 0 1.3 1.3 0 0 0 .58-1c0-.3 0-4.35 0-4.35h.49a.11.11 0 0 0 .11.05h.28c.11 0 .12-.12.14-.23s.06-.44.06-.44a.2.2 0 0 1 0 .05.08.08 0 0 0 0 0h.14c.07 0 .07-.14.07-.14a.63.63 0 0 0 .14 0s.07 0 .08-.11 0-.35 0-.35-.18-.09-.18-.09a.22.22 0 0 0 -.16-.14 4.75 4.75 0 0 0 0-1.09c0-.47-.07-1.26-.07-1.26l.22.1c.12.06.14.17.27.24a.52.52 0 0 0 .18.06s.14.85.21 1.22 0 1 .36 1.22a1.74 1.74 0 0 0 .91.27c.22 0 .4.07.93-.44a10.57 10.57 0 0 0 1.42-1.6c.3-.42.39-.6.36-.85zm-12.45-2.05a.11.11 0 0 1 -.09 0s0-.05-.2-.08a5.68 5.68 0 0 0 -.72 0 1.41 1.41 0 0 0 -.31 0s0-.18.05-.21a.43.43 0 0 0 0-.11c0-.06.08-.29.08-.29h.17l.08.11a.18.18 0 0 1 0 .14.22.22 0 0 0 .09.16h.09a.33.33 0 0 0 .19 0 3.33 3.33 0 0 1 .34 0 .79.79 0 0 1 .23 0 .28.28 0 0 1 0 .28zm8.63.12s0 .19-.07.24 0 .08-.06.07-.7-.29-.84-.34-.15-.06-.15-.1a.24.24 0 0 1 0-.09.17.17 0 0 0 .14 0 .45.45 0 0 0 .07-.1.32.32 0 0 0 .12-.09l.06-.08h.21.14.1.13s.12 0 .12 0 0 .32 0 .33 0 .09 0 .08.05.07.03.1zm1.32-.12a2.15 2.15 0 0 0 -.49-.07 5.16 5.16 0 0 0 -.73 0s0 0 0-.06 0-.06.05-.06h.37.13a.27.27 0 0 0 .15 0 .32.32 0 0 0 .15-.09.14.14 0 0 0 .06-.12.54.54 0 0 1 0-.15v-.1s.11 0 .13 0 .09.28.12.36a2.49 2.49 0 0 1 .2.29z"/></svg>