<svg viewBox="0 0 43 29.8" xmlns="http://www.w3.org/2000/svg"><path d="m42.09 17.44a12.33 12.33 0 0 0 -3.09-2.82c.33-.34.89-1.1.89-1.1a5.64 5.64 0 0 0 .84-.31.65.65 0 0 0 .26-.37 1.21 1.21 0 0 0 0-.61 15.62 15.62 0 0 0 -2.35-5.87 2.74 2.74 0 0 0 -.07-.28 2 2 0 0 0 .19-.48 2.47 2.47 0 0 0 1.5-.66c.06-.06.08-.06 0-.29a7.39 7.39 0 0 0 -1-1.08c-.19-.17-.3-.11-.3-.11a.25.25 0 0 0 -.31 0 2.35 2.35 0 0 0 -.52.53 2.16 2.16 0 0 0 -.16.86.29.29 0 0 1 -.14 0 2.25 2.25 0 0 1 -.41-.07s-1.75-1.31-3.42-2.44a28.21 28.21 0 0 0 -3.85-2.29c-.55-.22-1.15.34-1.49.63s-.55.72-.79.92-.93.24-1.13.32-.11.31.06.72a3.32 3.32 0 0 0 .67.88 3 3 0 0 0 -.47.48.88.88 0 0 0 -.07.32 1.59 1.59 0 0 0 0 .4 3.17 3.17 0 0 0 .14.55.18.18 0 0 0 -.22.07 1.52 1.52 0 0 0 -.38-.23s-.24.08-.24.08 0-.05-.06-.06a1.33 1.33 0 0 0 -.28.13.52.52 0 0 0 -.13.12 13.18 13.18 0 0 0 -2.46-.3 10.75 10.75 0 0 0 -3.23.2 6.71 6.71 0 0 0 -2.1.93 5.28 5.28 0 0 0 -1.22 1.79c-.24.56-.45 1.1-.45 1.1s-1.3-.1-1.42-.18l-1.27-.46a8 8 0 0 0 -1.17-.32l.05-.05s0-.2 0-.3a1.26 1.26 0 0 0 -.25-.58 2.3 2.3 0 0 0 -1.08-.54c-.48-.13-1-.17-1.36-.25s-1.8-.6-2.28-.76a6.29 6.29 0 0 0 -.92-.22 6.67 6.67 0 0 0 -1.79-.23.87.87 0 0 0 -.73.52c-.09.22.19.6.19.6s0 .31 0 .35a.19.19 0 0 0 .16 0c.06 0 .12-.13.12-.13a2.17 2.17 0 0 0 .45.3s-.76.4-1.24.69a11.89 11.89 0 0 0 -1.3.88c-.1.1 0 .28 0 .28a.4.4 0 0 0 -.08.51 4.52 4.52 0 0 0 .43.7 2.07 2.07 0 0 0 -.28.41 1 1 0 0 0 .15.26h-.33c-.1 0-.09 0-.09.08v.28.07a4.51 4.51 0 0 1 .6 0 3.22 3.22 0 0 1 .34.26v.17h-.13c-.12 0-.13.11-.13.17v.44s-1.29.06-1.39.05a.17.17 0 0 0 -.14.11s-.16.72-.17.79a.13.13 0 0 1 -.05.11 1.07 1.07 0 0 0 -.59.18 1.91 1.91 0 0 0 -.6.81c0 .24.11.7.69 1.69a16.57 16.57 0 0 0 1.72 2.37 1.48 1.48 0 0 0 .31.26 1.24 1.24 0 0 0 .33.14 11.14 11.14 0 0 0 .19 2.32 8.5 8.5 0 0 0 1 2.45 5.85 5.85 0 0 0 2.43 2.24 4.56 4.56 0 0 0 2.66.48 5.16 5.16 0 0 0 3-1.55 4.72 4.72 0 0 0 1.08-1.64.11.11 0 0 1 .09-.05l2.3 1.12c.14.06.57.32.66.37a1.94 1.94 0 0 0 .39.13c.19 0 .83.12 1.6.22s1 .12 1 .12.45-.08.54-.08a11.41 11.41 0 0 1 1.18.15c.33.05 1.37.38 1.37.38a.73.73 0 0 0 .29.09s.43.06.88.1a7.8 7.8 0 0 0 1 0l.75.38 2.42.07c.64 0 2.18-.33 2.18-.33a8.43 8.43 0 0 0 2.7 3.12 6.54 6.54 0 0 0 5 1 6.32 6.32 0 0 0 4.11-3.08 7.71 7.71 0 0 0 1-3.1 8.47 8.47 0 0 0 -.59-4.26s.48.13.65 0 .07-.37-.84-1.77zm-37.54-3-.1-.08.1-.47.3.16zm4 1c0-.06.17-.12.17-.12l.54.5c.1.09.09.16.06.19a.09.09 0 0 1 -.06 0h-.68a5.59 5.59 0 0 1 -.01-.55zm-2.55-2.29a.7.7 0 0 0 -.19.12c-.11.1-.47.36-.53.41s-.09 0 0-.16.22-1 .22-1a.18.18 0 0 0 -.1-.12l-.14-.07.22-.33c.07-.08.11-.06.17-.09s.92-.3 1-.33a1.38 1.38 0 0 1 .6.31 4.86 4.86 0 0 1 .8.68 7.89 7.89 0 0 0 -1 .2 4.43 4.43 0 0 0 -1.05.38zm3.27 10.25a2.7 2.7 0 0 1 -.39.06c-.06 0-.11 0-.4-.19a3.82 3.82 0 0 1 -.83-.75c0-.06.11-.32.11-.32a2.43 2.43 0 0 0 .53-.28 2.06 2.06 0 0 0 .41-.43 1.07 1.07 0 0 1 .32.29 5.06 5.06 0 0 1 .44.83 3.73 3.73 0 0 1 .08.49s-.27.3-.27.3zm.81-1.09a1.85 1.85 0 0 1 -.16.31l-.11-.31a2.51 2.51 0 0 1 -.09-.26 2.77 2.77 0 0 1 0-.47s.06 0 .11 0 0 .07.16.07a1.44 1.44 0 0 1 .34.1zm23.75 2.53c0 .05-.15.05-.27 0a3.09 3.09 0 0 1 -.66-.71.43.43 0 0 1 0-.35.6.6 0 0 1 .39-.12.56.56 0 0 1 .47.2 2.34 2.34 0 0 1 .14.68c0 .13-.01.26-.07.3zm.93.23.35.26s-.39 0-.45-.06a1.24 1.24 0 0 1 .1-.2zm2.33 1.86a4.82 4.82 0 0 1 -1.77 0c-.71-.14-1-.42-1.06-.51a.31.31 0 0 1 0-.18 3.43 3.43 0 0 0 1.48.05 2 2 0 0 0 .93-.36h.48s.18.48.19.57a.34.34 0 0 1 -.25.43zm1.52-5.42a2.06 2.06 0 0 1 .28-.45c.07-.08.16-.14.26-.07a.69.69 0 0 1 .17.42c0 .12.06.68.06.8a.34.34 0 0 1 -.13.28.35.35 0 0 1 -.27-.12 5 5 0 0 1 -.39-.49.6.6 0 0 1 .02-.37zm-.12.65s.24.3.27.36a.41.41 0 0 1 0 .25.08.08 0 0 1 -.11 0l-.13-.07s-.02-.42-.03-.54zm-.31 2s0-.14.13-.38a2.13 2.13 0 0 0 .12-.56l.54.17c.11 0 .12.07.12.11a1.42 1.42 0 0 1 -.18.34c-.09.12-.34.4-.43.52s-.31 0-.31 0 .01-.24.01-.24zm1 1.38a4.71 4.71 0 0 1 -1.08 1c-.12.06-.22.06-.3-.13s-.2-.48-.2-.48a3.2 3.2 0 0 0 1.11-.45 4.5 4.5 0 0 0 .92-.91 4.22 4.22 0 0 1 -.44.93z"/></svg>