<svg viewBox="0 0 50.4 26.74" xmlns="http://www.w3.org/2000/svg"><path d="m50 16.07a8.68 8.68 0 0 0 -2.21-2.07 11.2 11.2 0 0 0 -2.24-1.09.1.1 0 0 1 -.09 0 2 2 0 0 1 .67-.55 7.87 7.87 0 0 1 .78-.32.82.82 0 0 0 .23.13.33.33 0 0 0 .17 0 2.64 2.64 0 0 0 .5-.13c.18-.09.42-.18.5-.23s.14-.24.11-.53a7.23 7.23 0 0 0 -.53-2 12.49 12.49 0 0 0 -1.4-2.32c-.13-.61-1.57-1.86-1.57-1.86s-.28-.24-.28-.24v-.22s.38-.24.4-.31 0-.16-.45-.62a5.49 5.49 0 0 0 -1.08-.88c-.06 0-.14.2-.14.2l-.19-.08v-.16s-.06-.09-.11-.1a.17.17 0 0 0 -.17.08 3 3 0 0 0 -.22.41 4.08 4.08 0 0 0 -.68-.47c-.41-.27-2-1.27-2.92-1.72s-1.87-1-2-1-.19.24-.26.65-.18.89-.23 1-.23.24-.36.32-.07.25.21.62a3.33 3.33 0 0 0 .91.82 6.33 6.33 0 0 0 1.14.34h-1.12l-.11.12a8.27 8.27 0 0 0 -.9.08.32.32 0 0 0 -.11.13v.6l-.06.06a.24.24 0 0 0 -.13 0c-.06 0-.06 0-.12.06s-.09.07-.09.07h-.28a.66.66 0 0 0 -.25 0c-.07 0-.25.1-.28.16a.48.48 0 0 0 0 .2.65.65 0 0 0 -.09.19v.14a.83.83 0 0 1 0 .2l-.17.1-.23.17a8.82 8.82 0 0 0 -1.86-.83c-1.46-.42-4.54-1.19-6.69-.44a9.08 9.08 0 0 0 -4 2.33 6.44 6.44 0 0 0 -.58 1.49l-.11-.05a11.9 11.9 0 0 0 -1.75-.06 38.72 38.72 0 0 1 -4.69-.57c-.8-.14-1.43-.36-1.52-.36h-.38a3.13 3.13 0 0 0 -.18-.89 2.54 2.54 0 0 0 -.45-.76c-.1-.06-1.79-.09-2.89-.3a21.25 21.25 0 0 1 -2.75-.85c-.24-.07-.37-.07-.43 0l-.27.27a7.23 7.23 0 0 0 -1.48-.56c-.47-.07-.53 0-.6.12a.21.21 0 0 0 0 .28l.59.34.94.39c.07 0 .07.17.07.17s-.43.18-1.61.62-2.77 1.28-2.83 1.3a.14.14 0 0 0 -.08.16 2.19 2.19 0 0 0 .19.28 3.23 3.23 0 0 0 .61.69 2.5 2.5 0 0 1 -.5 0c-.11 0-.1 0-.1 0l.59.49c.09.08.58.35.58.35a1.33 1.33 0 0 0 .12.22.5.5 0 0 0 .21.15l.07.07-1.25.16h-.12-.13l-.07.06h-.88v.47s.86 0 .91 0h.17a1 1 0 0 0 .32.16.56.56 0 0 1 .29.16.23.23 0 0 1 0 .11h-.12c-.05 0-.1.1-.11.12s0 .45 0 .45-.58.24-.78.24a.52.52 0 0 0 -.24.19s-.7 2.36-.76 2.5 0 .16.11.13.53-.2.53-.2-.38.79-.41.89a5.15 5.15 0 0 0 -.06.56 4 4 0 0 0 .3-.33l1.17-1.66a.51.51 0 0 0 .2 0c.08 0 .15 0 .17-.08s.21-.79.21-.79.64-.88.88-1.16.31-.37.34-.39 2.09-.93 2.09-.93l.57.06a3.94 3.94 0 0 0 .63-.27h.32a2 2 0 0 0 .35-.15 8 8 0 0 1 1.74.48 11 11 0 0 1 2.55 1.36.94.94 0 0 0 .46.2c.25 0 1.55.33 1.55.33l-.25.61a.05.05 0 0 1 -.07 0 7.19 7.19 0 0 0 -4.38-1.07 7.72 7.72 0 0 0 -2.51.58l-.61-.06s-.09-.16-.17-.19-.15.05-.15.21a1.57 1.57 0 0 0 .1.41h-.15l-.34-.12a3.87 3.87 0 0 0 -1.13 0 .6.6 0 0 0 -.45.34 3.21 3.21 0 0 0 0 .84 2.24 2.24 0 0 0 .21.62 7.07 7.07 0 0 0 -1.6 4.91 7.23 7.23 0 0 0 1.8 4.55 7.94 7.94 0 0 0 5.47 2.37 7.59 7.59 0 0 0 5-2.14 7.69 7.69 0 0 0 1.8-3s.27 0 .88.2 1.51.44 1.51.44l1.32.63a10.14 10.14 0 0 1 1.17.67c.11.07.2.2.34.26a5.77 5.77 0 0 0 1.11.06c.58 0 2.3.05 2.37 0a.63.63 0 0 0 .15 0 2 2 0 0 1 .34-.07h.4s.15-.08.18-.08h.24a.15.15 0 0 0 .13 0s1.4 0 1.52 0a3.65 3.65 0 0 1 .66.1c.23.05.88.14.88.14a.68.68 0 0 0 .19 0 .21.21 0 0 0 .12 0s.89 0 1.57 0a4.48 4.48 0 0 0 1.12-.16.16.16 0 0 1 .16 0c.07 0 .55.32.55.32s.87 0 1.76-.09a8.77 8.77 0 0 0 1.75-.27c.08-.05.06-.13 0-.31a5.55 5.55 0 0 1 -.08-.89 6.66 6.66 0 0 1 .06-.95 9.43 9.43 0 0 0 .76 1.76 7.16 7.16 0 0 0 2.07 2.13 6.76 6.76 0 0 0 7.36.1 6.92 6.92 0 0 0 2.66-2.92 6.84 6.84 0 0 0 .63-4 7.49 7.49 0 0 0 -.66-2.08.22.22 0 0 1 0-.11s.55.27.66.3.18 0 .19 0a3.12 3.12 0 0 0 -.34-.71zm-37.85 4.41.71.19.42.1.16-.12.11.2a.42.42 0 0 1 -.15 0 .25.25 0 0 0 -.2.05s-.07.07-.13 0a.23.23 0 0 0 -.2 0 .21.21 0 0 1 -.16.05.22.22 0 0 0 -.21 0c-.05.06-.05.06-.13.05a.29.29 0 0 0 -.21 0c-.05 0-.08.07-.12.05h-.12a3 3 0 0 0 .23-.57zm-7.1-.22a3.9 3.9 0 0 1 -.08-1 4.89 4.89 0 0 1 .26-1.35 1.39 1.39 0 0 0 .34.47c.21.16.4.35.51.41l.17.08a3.47 3.47 0 0 0 0 1.34s-.5.12-.72.19a.35.35 0 0 1 -.48-.14zm2.68 2.84c-.07.13-.13.26-.34.26a1.77 1.77 0 0 1 -.81-.48 4.2 4.2 0 0 1 -1-1.16c-.32-.57-.25-.74-.16-.82a1.6 1.6 0 0 1 .9-.28 2.81 2.81 0 0 0 .5.93 2.86 2.86 0 0 0 1.18.93s-.21.52-.27.62zm3.48.42a2.76 2.76 0 0 1 -1.38.39 4.22 4.22 0 0 1 -1.44-.11c-.27-.06-.39-.19-.34-.49a2.25 2.25 0 0 1 .33-.69 2.58 2.58 0 0 0 1.13.12 2.71 2.71 0 0 0 1.28-.43l.43.81c.05.09.11.29-.01.4zm1.79-1.39c-.33.37-.69.87-1 1s-.42-.05-.55-.28a1.92 1.92 0 0 1 -.25-.85 6.91 6.91 0 0 0 .52-.51.37.37 0 0 0 .1 0 .21.21 0 0 0 .2 0 .12.12 0 0 1 .14 0 .18.18 0 0 0 .21-.05c.05-.07.09-.07.13 0a.28.28 0 0 0 .22 0c.07-.05.11-.06.17 0s.16 0 .2-.06a.14.14 0 0 1 .14 0 .4.4 0 0 0 .24 0 .19.19 0 0 1 .1 0 3.28 3.28 0 0 1 -.57.75zm1.56-8.67c0-.06-.12-.17-.09-.27a.31.31 0 0 1 .07-.15l.51.12a3.91 3.91 0 0 1 -.33.29.22.22 0 0 1 -.13.01zm.35 1.32a2.28 2.28 0 0 1 -.21-.22s.27-.16.27-.16l1-.5c.07 0 .14 0 .24-.06l.26-.15a.2.2 0 0 1 .19 0 1.16 1.16 0 0 1 0 .39l-.08.27c0 .12-.05.16 0 .2a.21.21 0 0 1 .06.08 3.1 3.1 0 0 0 -.63 0 4.4 4.4 0 0 0 -.82.08zm1.78 1.63a4.64 4.64 0 0 0 -.46-.09l-.34-.48s-.06-.08.05-.09.63-.12.63-.12.16.8.15.78zm3.75-1.41c-.07 0-.11.06-.16.05s-.06.08-.11.13-.14.06-.19.13l-.15.21-.76-.32a4.28 4.28 0 0 1 -.42-.26l-.26-.15.17-.48s.22.07.22 0l.34.09 1 .29a.06.06 0 0 0 .08-.06 1.26 1.26 0 0 0 0-.19 1.1 1.1 0 0 1 .28.27c.03.23.02.29-.04.29zm25.12 4.55c.07-.14.21-.4.24-.38a1.07 1.07 0 0 1 0 .38v.3s-.11.14-.16.08a.41.41 0 0 1 -.08-.37zm-1 1.8c.06 0 .14-.12.22-.1a.14.14 0 0 1 .1.17c0 .07 0 .25-.06.27a.42.42 0 0 1 -.26-.08.28.28 0 0 1 -.05-.17s.02-.04.08-.08zm-.65.48c.09 0 .17.14.13.21a.32.32 0 0 1 -.22.2 3 3 0 0 1 -.4.09c-.08 0-.06-.07-.06-.07a3.28 3.28 0 0 1 .32-.31c.11-.06.17-.14.26-.11zm-1-.06a.46.46 0 0 1 .17-.14 1.66 1.66 0 0 1 .45 0s.05.11 0 .16-.26.23-.3.29-.05 0-.15 0-.2-.19-.2-.19a.18.18 0 0 1 .04-.11zm-2.91-16.57a.21.21 0 0 1 .12-.06.91.91 0 0 0 .17.08h.24l.14.19a.23.23 0 0 0 0 .14s0 .07-.06.2a1.67 1.67 0 0 0 -.16.48s0 0-.14.09a.66.66 0 0 1 -.14.14l-.1-.15a1.17 1.17 0 0 0 .21-.16s.07-.22-.17-.21c0 0 0-.2-.15-.19s-.25 0-.25 0 .12-.09.07-.11-.14 0-.14 0a.52.52 0 0 0 -.21-.24.16.16 0 0 1 0-.13.84.84 0 0 1 0-.18 1.29 1.29 0 0 0 .3.11c.11.04.21.05.27 0zm-1.34-.37s0-.06 0-.1a.13.13 0 0 1 0-.15 1 1 0 0 0 .1-.27c0-.11 0-.42 0-.42l.32.07a4.8 4.8 0 0 0 .39.28s-.08.5-.08.63a.71.71 0 0 0 0 .2l-.22-.11s-.11-.09-.3-.09zm.34 14.26c0-.16.07-.34.07-.34s0 .07.07.14 0 .15.09.18a2 2 0 0 1 0 .38c0 .09-.19.24-.19.24l-.12.12s.08-.55.08-.72zm0 1.05a.46.46 0 0 0 .25.14.19.19 0 0 1 .19.14.82.82 0 0 1 .05.17 1.08 1.08 0 0 1 -.3 0c-.12-.08-.25-.17-.19-.45zm2.37 3.4c-.05.05-.24.12-.51-.09a4.49 4.49 0 0 1 -1.18-1.23c-.4-.64-.48-1-.45-1.08s.11-.17.25-.23a.64.64 0 0 1 .26-.07 3.55 3.55 0 0 0 .79 1.3s.37.34.5.43.61.51.61.51a3.55 3.55 0 0 1 -.3.46zm.25-1.7a.23.23 0 0 1 0-.28 1.25 1.25 0 0 1 .38-.16.27.27 0 0 1 .18 0s0 .2 0 .31 0 .34-.08.38a.42.42 0 0 1 -.32-.1zm3.38 1.9c0 .08-.09.33-.88.45a6.64 6.64 0 0 1 -2.05-.12c-.32-.08-.34-.29-.33-.37a2.93 2.93 0 0 1 .19-.42 3.76 3.76 0 0 0 1.68.39 2.49 2.49 0 0 0 1.32-.22.76.76 0 0 1 .07.29zm.2-2.4-.12.1a.48.48 0 0 1 .08-.33c.07-.08.3-.2.27-.12a1.18 1.18 0 0 1 -.22.35zm2.36-.08a5.44 5.44 0 0 1 -.83 1.44 2.73 2.73 0 0 1 -.91.78.39.39 0 0 1 -.39 0 .57.57 0 0 1 -.17-.19 3.9 3.9 0 0 0 1.34-1.08 5.27 5.27 0 0 0 .66-1.38s.38.1.31.43zm.24-1.16c0 .2-.07.35-.21.39a.6.6 0 0 1 -.27 0 4.19 4.19 0 0 0 0-1.33 3.92 3.92 0 0 0 -.79-1.61 1.57 1.57 0 0 1 .28-.21.39.39 0 0 1 .45.2 5 5 0 0 1 .5 1.39 4.16 4.16 0 0 1 .05 1.17z"/></svg>