<svg viewBox="0 0 43.16 29.8" xmlns="http://www.w3.org/2000/svg"><path d="m42.59 13.39a2 2 0 0 0 -.8-.24l-.18-.85c0-.14-.18-.15-.18-.15h-1.36v-.5c0-.09 0-.15-.11-.15h-.18v-.15l.41-.29h.57v-.34c0-.07 0-.08 0-.08h-.34s.15-.12.15-.21a2.14 2.14 0 0 0 -.24-.42 4.49 4.49 0 0 0 .49-.92c0-.16 0-.45-.73-1a13.61 13.61 0 0 0 -2.09-1.19l.1-.06.33-.22c0 .1.09.12.16.13a.11.11 0 0 0 .15-.07 1.24 1.24 0 0 0 0-.31 3.32 3.32 0 0 0 .16-.37c0-.1.1-.61-.69-.76a4.06 4.06 0 0 0 -1.79.21 7.34 7.34 0 0 0 -1.89.55c-.61.22-1.55.52-1.7.55s-.66 0-.9.11a2.19 2.19 0 0 0 -1.19.65 1.34 1.34 0 0 0 -.22.84 3.12 3.12 0 0 0 -.68.17c-.59.19-1.25.46-1.64.61a6.84 6.84 0 0 1 -1.5.13s0 0 0 0a7.5 7.5 0 0 0 -1.27-2.52 4.2 4.2 0 0 0 -2.13-1.15 9.84 9.84 0 0 0 -2.92-.28 10.52 10.52 0 0 0 -1.6.1 4.62 4.62 0 0 0 -1.58.23h-.24a.48.48 0 0 0 -.17-.07.8.8 0 0 0 -.4 0 .59.59 0 0 0 -.24.26c0 .06-.07.06-.06 0a1 1 0 0 0 0-.15s0-.08 0-.12-.09-.14-.09-.14.14-.12.15-.18 0-.7 0-.76-.2-.08-.2-.08c0-.28-.45-.61-.45-.61a1.83 1.83 0 0 0 .48-.5 2 2 0 0 0 .43-1c-.05-.2-.57-.25-1-.33s-.82-.76-1.19-1.18a1.8 1.8 0 0 0 -1.22-.58 14.82 14.82 0 0 0 -3.2 1.67 14.93 14.93 0 0 0 -2.26 1.68 7.77 7.77 0 0 0 -1 .64 8.63 8.63 0 0 0 -1 .88l-.6.06a6 6 0 0 0 -.15-.93 2 2 0 0 0 -.53-.58.27.27 0 0 0 -.26 0 .13.13 0 0 0 -.08.08.4.4 0 0 0 -.09-.07 1.74 1.74 0 0 0 -.52.37 5.63 5.63 0 0 0 -.85.93c0 .09.15.36.63.59a3.6 3.6 0 0 0 1 .31 2.18 2.18 0 0 0 .32.5 10 10 0 0 0 -.66 1 30.7 30.7 0 0 0 -1.35 3.16 7.29 7.29 0 0 0 -.4 1.71 5.49 5.49 0 0 0 -.08.57.6.6 0 0 0 .09.27c0 .14.08.22.34.38a3.64 3.64 0 0 0 .72.3 13 13 0 0 0 1 1.16 8 8 0 0 0 -1.86 1.32 9.88 9.88 0 0 0 -1.8 2.14c-.19.35-.52.88-.37 1.06s.62 0 .62 0a5 5 0 0 0 -.42 1.33 8.72 8.72 0 0 0 0 3.81 7.32 7.32 0 0 0 1.6 3.26 6.21 6.21 0 0 0 3 2 6.8 6.8 0 0 0 3.72-.05 7.56 7.56 0 0 0 2.85-1.79 8.17 8.17 0 0 0 1.54-2.17s.59.15 1.1.24a7.23 7.23 0 0 0 1.1.11c.21.08.27 0 .27 0s2-.06 2.09-.08.74-.37.74-.37.61 0 .85 0 .71-.09.71-.09.31 0 .4 0a.27.27 0 0 0 .16-.09s1-.34 1.26-.38a8.62 8.62 0 0 1 1-.15 2.82 2.82 0 0 1 .76 0 1.79 1.79 0 0 0 .58 0s2.31-.3 2.63-.38.57-.54.57-.54h.19a1.9 1.9 0 0 0 .53-.18c.25-.09 1.65-.74 1.65-.74h.1a6.33 6.33 0 0 0 1.5 2.06 4.88 4.88 0 0 0 3.09 1.17 5 5 0 0 0 3.63-1.6 7.51 7.51 0 0 0 1.9-3.67 7.3 7.3 0 0 0 .24-2.23 3.11 3.11 0 0 1 .31-.11c.17-.06.34-.11.74-.64a16.74 16.74 0 0 0 1.3-1.81 8.31 8.31 0 0 0 .86-1.81c-.03-.3-.38-.72-.62-.91zm-37.9 10.61a1.68 1.68 0 0 0 .1.33c0 .06-.18.09-.23.08a.82.82 0 0 1 -.32-.29l-.32-.5c0-.08-.08-.17 0-.21l.52-.19s.21.6.25.78zm-.23-1.76v.53s-.1.1-.16.09a.33.33 0 0 1 -.09-.32 1.83 1.83 0 0 1 .25-.32zm-.88-.08a6.66 6.66 0 0 1 .06-.76c0-.19 0-.24.14-.33s.16-.07.22-.07a1.31 1.31 0 0 1 .26.33c.06.11.2.35.1.53a1.81 1.81 0 0 1 -.37.48 1.67 1.67 0 0 0 -.22.15s-.09 0-.13-.06a.49.49 0 0 1 -.06-.29zm1.56 4.28c0 .07-.11.12-.23.1a2.27 2.27 0 0 1 -.71-.54 2.79 2.79 0 0 1 -.59-.79c-.18-.38-.27-.63-.27-.63a3.7 3.7 0 0 0 .75.77 3.82 3.82 0 0 0 1.22.53zm4.29-3.2.2-.4c0-.08.08-.17.18-.07a.75.75 0 0 1 .14.51c0 .12-.08.13-.21.18a.85.85 0 0 1 -.27 0s-.09-.1-.04-.24zm-.77 3.31a3.22 3.22 0 0 1 -1.27.5 3.72 3.72 0 0 1 -1.55-.09.38.38 0 0 1 -.23-.48 2.05 2.05 0 0 1 .19-.48h.45a2.75 2.75 0 0 0 1.31.43 3.21 3.21 0 0 0 1.16-.11.26.26 0 0 1 -.06.21zm1.34-2.26c-.13.18-.61.66-.71.62s-.17-.07-.17-.25a2.57 2.57 0 0 1 .15-.85.5.5 0 0 1 .38-.17c.14 0 .47.05.51.15s-.08.33-.16.5zm18.42-3.18a2.58 2.58 0 0 1 -.18.31 1.91 1.91 0 0 1 -.08-.31.07.07 0 0 1 .07-.07s.16.03.14.07zm.07.6s.35-.48.37-.52.22 0 .22 0a1.88 1.88 0 0 0 .14.49zm5.85-6.36s.13.11.13.11 0 .42 0 .54 0 .15-.07.11l-.46-.36a4.06 4.06 0 0 1 .35-.4zm-1 6.68s-.13.4-.15.47-.06.2-.1.1l-.31-.68h.44c.1.02.1.08.09.08zm1.74.85a6.67 6.67 0 0 1 -.7.54.38.38 0 0 1 -.26.08.91.91 0 0 1 -.35-.07 1.41 1.41 0 0 1 -.26-.28.69.69 0 0 1 0-.35 5 5 0 0 1 .3-.65c.1-.17.24-.38.24-.38a.12.12 0 0 0 .09 0 .18.18 0 0 0 .23.05.26.26 0 0 0 .26.06.24.24 0 0 0 .24 0s0 .07.18.08a.55.55 0 0 1 .17.15 3.45 3.45 0 0 1 .17.45 1.58 1.58 0 0 1 -.34.32zm2.16-9.58c-.11-.07-.13-.12-.26-.1a3.76 3.76 0 0 0 -1-.48 7.89 7.89 0 0 0 -.89-.15s.43-.42.69-.62a4.56 4.56 0 0 1 .65-.39l1.1.38c.15 0 .32.39.32.39a1 1 0 0 0 -.18.09s0 .15 0 .27.24 1.08.24 1.1-.58-.42-.7-.49zm.47-6.89c-.06 0-.08 0-.1-.12a3.15 3.15 0 0 0 -.22-.39l-.07-.12a2.39 2.39 0 0 1 .56 0c.31 0 .4.06.41.18s-.17.3-.28.37a1.26 1.26 0 0 1 -.33.08z"/></svg>