<svg viewBox="0 0 23.23 31.99" xmlns="http://www.w3.org/2000/svg"><path d="m11.76 0a4.84 4.84 0 0 1 2.74 1.16c.69.56.68.68 1.32.81s1.17.14 1.33.43a8.65 8.65 0 0 1 .55 1.37 1.91 1.91 0 0 1 -.19.57.91.91 0 0 0 -.06.32l.94-.32c.68-.25 1.14-.4 1.21-.44s.17-.2.24-.22 1.33-.43 1.6-.45a2.11 2.11 0 0 1 .93.39c.27.18.86.67.86.88a2.42 2.42 0 0 1 -.36.82c-.13.23-.17.3-.53.39a2.75 2.75 0 0 1 -1.45.07 3 3 0 0 1 -.9-1 .77.77 0 0 0 -.23-.25s-1.15.37-1.51.5-.46.21-.44.27.27.24.47.45a6.81 6.81 0 0 1 1 .92 1.3 1.3 0 0 1 .28.75l.26.12.15.06s.91.43.91.45a.28.28 0 0 1 .09.26h.12c.05 0 .24-.05.32.11a.26.26 0 0 1 -.06.33s-.08 0-.2 0a2 2 0 0 1 -.29-.14s-.09.22-.28.17-1.11-.45-1.11-.45-.15.79-.17.94a4 4 0 0 0 0 .88c.05.26.31.77.57 1.62s.38 1.55 0 3.85a26.46 26.46 0 0 1 -1.36 4.91 2.15 2.15 0 0 1 -.11.47.3.3 0 0 1 -.24.21.66.66 0 0 1 -.08.25c-.08.11-.34.37-.34.37a2.51 2.51 0 0 1 -.49 1 27.58 27.58 0 0 1 -2.25 2.59c-.51.5-1.18 1.08-1.18 1.08s0 1.28 0 1.4 0 .13 0 .13h-.13l-.07-1.39v.2s0 2.79 0 3.13a2.16 2.16 0 0 1 -.56 1.55 1.58 1.58 0 0 1 -1.22.48 2 2 0 0 1 -1.27-.68 2.93 2.93 0 0 1 -.57-1.68c0-.72-.07-3-.07-3l-.07 1.36h-.15l-.07-1.55s-1.58-1.45-2.2-2.15a7.81 7.81 0 0 1 -1.74-2.47 8.83 8.83 0 0 1 -1.08-2.14 21.34 21.34 0 0 1 -1-3.78 11.17 11.17 0 0 1 -.21-3.45c.15-1.13.74-1.91.81-2.71a2.68 2.68 0 0 0 -.06-.67c-.06-.36-.16-.8-.16-.8l-1 .43s-.16.07-.23 0a1.46 1.46 0 0 1 -.15-.13 3.37 3.37 0 0 1 -.32.14s-.15 0-.17-.1 0-.26.09-.32a.44.44 0 0 1 .26 0 .32.32 0 0 1 .19-.3c.15-.09.9-.47 1-.5a1.41 1.41 0 0 0 .33-.13 1.38 1.38 0 0 1 .19-.63 5.83 5.83 0 0 1 .81-.82 5.68 5.68 0 0 0 .55-.5s0-.23-.38-.34l-1.77-.59s-.55.81-.77 1a.91.91 0 0 1 -.8.3 4.38 4.38 0 0 1 -1.14-.1 1.62 1.62 0 0 1 -.53-.69c-.09-.16-.22-.45-.16-.62a4.5 4.5 0 0 1 1.3-1c.49-.23 1.14.08 1.42.16a2.39 2.39 0 0 1 .74.26c.1.11.2.19.7.35s1.84.64 1.84.64a1.26 1.26 0 0 0 0-.45.62.62 0 0 1 -.2-.26 1.65 1.65 0 0 1 0-.58 4.14 4.14 0 0 1 .59-1.22 3 3 0 0 1 1-.25 1.71 1.71 0 0 0 .91-.38 6.79 6.79 0 0 1 1.04-.76 4.41 4.41 0 0 1 2.42-.89z"/></svg>