<svg height="16.544" viewBox="0 0 17.1 16.544" width="17.1" xmlns="http://www.w3.org/2000/svg"><g fill="#333"><path d="m6-.8a6.8 6.8 0 1 1 -6.8 6.8 6.808 6.808 0 0 1 6.8-6.8zm0 12a5.2 5.2 0 1 0 -5.2-5.2 5.206 5.206 0 0 0 5.2 5.2z" transform="translate(.8 .8)"/><path d="m5 5.8a.8.8 0 0 1 -.566-.234l-5-5a.8.8 0 0 1 0-1.131.8.8 0 0 1 1.131 0l5 5a.8.8 0 0 1 -.565 1.365z" transform="translate(11.3 10.744)"/><path d="m6 .75h-6a.75.75 0 0 1 -.75-.75.75.75 0 0 1 .75-.75h6a.75.75 0 0 1 .75.75.75.75 0 0 1 -.75.75z" transform="translate(3.8 6.8)"/><path d="m6 .75h-6a.75.75 0 0 1 -.75-.75.75.75 0 0 1 .75-.75h6a.75.75 0 0 1 .75.75.75.75 0 0 1 -.75.75z" transform="matrix(0 1 -1 0 6.8 3.8)"/></g></svg>