<svg enable-background="new 0 0 32 19" viewBox="0 0 32 19" xmlns="http://www.w3.org/2000/svg"><path d="m0 .8v6.8c0 .5.4.8.8.8h.2c.2-2.4 2.2-4.2 4.6-4.1 1 .1 2 .5 2.7 1.1 0 0 .1.1.1.1.6.6 1.3 1.3 1.8 2 .2.3.5.6.7.8h1.6c.5 0 .8-.4.8-.8v-.5h14.7v.6c0 .5.4.8.8.8h2.3c.5 0 .8-.4.8-.8v-6.8c.1-.4-.3-.8-.7-.8h-2.3c-.5 0-.9.4-.9.8v.6h-14.6v-.6c0-.5-.4-.8-.8-.8h-11.8c-.4 0-.8.4-.8.8m1.8 7.9c0 1.6 1.1 3.1 2.7 3.5s20.2 4.8 20.3 5.4.2 1.1.8 1.3c.8.3 1.7 0 2-.8s0-1.7-.8-2-11.1-4-13.6-4.9-3.2-3-5.2-4.9-.1-.1-.1-.1c-1.5-1.3-3.7-1.2-5 .2-.7.6-1.1 1.4-1.1 2.3m2.2 0c0-.8.6-1.4 1.4-1.4s1.4.6 1.4 1.4-.6 1.4-1.4 1.4c-.7 0-1.4-.6-1.4-1.4" fill="#fff"/></svg>