<svg enable-background="new 0 0 32 25" viewBox="0 0 32 25" xmlns="http://www.w3.org/2000/svg"><path d="m0 15.4c0-2.9 2.4-5.3 5.3-5.3s5.3 2.4 5.3 5.3-2.4 5.3-5.3 5.3c-2.9.1-5.3-2.3-5.3-5.3zm2.6 0c0 1.5 1.2 2.8 2.8 2.8 1.5 0 2.8-1.2 2.8-2.8s-1.2-2.8-2.8-2.8c-1.6.1-2.8 1.3-2.8 2.8zm18.7.2c-.7.6-1.1 1.1-1.1 1.1s-1.9 2.2-3.9 2.2h-5c-.5 0-.3-.5-.3-.5 1.2-2.7 1.3-6.3-3-8.8l-7.3-4.3s.4-1.6 3.9-1.6c1.9-.1 3.7.8 4.7 2.5l5.4.5c3.8-4.5 8.4-1.2 8.4-1.2l-1.5-4.8s-.1-.3.1-.5c.1-.1.3-.1.5 0 .9.6 2.4 1.7 4.2 3 2.4 1.8 3.3 4.1 1 6.4l-.1.1c2.9.3 5.1 3 4.7 5.9s-3 5.1-5.9 4.7c-2.6 0-4.6-2.1-4.8-4.7zm2.6-.4c0 1.5 1.2 2.8 2.8 2.8 1.5 0 2.8-1.2 2.8-2.8 0-1.5-1.2-2.8-2.8-2.8-1.6.1-2.8 1.3-2.8 2.8z" fill="#fff"/></svg>