<svg height="24.037" viewBox="0 0 26 24.037" width="26" xmlns="http://www.w3.org/2000/svg" xmlns:xlink="http://www.w3.org/1999/xlink"><clipPath id="a"><path d="m0 0h26v24.037h-26z"/></clipPath><g clip-path="url(#a)" fill="#262626"><path d="m44.093 16.464a1.821 1.821 0 0 0 .407 2.536l6.513 4.7a1.819 1.819 0 0 0 2.533-.41l11.341-15.716a1.818 1.818 0 0 0 -.41-2.533l-6.513-4.7a1.82 1.82 0 0 0 -2.532.41zm2.159-1.055 9.343-12.949 7.618 5.5-9.344 12.94z" transform="translate(-41.531)"/><path d="m0 23.549h1.681a8.371 8.371 0 0 1 2.463-5.942c.088-.088.189-.163.282-.247l.887 1.212 1.748-4.015-4.541.2.9 1.229a10.056 10.056 0 0 0 -3.42 7.563" transform="translate(0 -13.817)"/><path d="m374.712 275.335-1.749 4.015 4.541-.2-.9-1.229a10.058 10.058 0 0 0 3.419-7.563h-1.681a8.369 8.369 0 0 1 -2.463 5.943c-.088.088-.188.163-.281.246z" transform="translate(-354.023 -256.628)"/></g></svg>