<svg xmlns="http://www.w3.org/2000/svg" viewBox="0 0 81.17 61.42">
<path d="M81,27.19c-.12-.36-1.12-3.73-1.12-3.73a.37.37,0,0,0-.37-.29l-2.64-.05-.08-.35h.29a.27.27,0,0,0,.23-.27c0-.25,0-.91,0-.91a.21.21,0,0,0-.19-.25l.45-.35s.35.05.47-.07l.67,0A1.2,1.2,0,0,0,79,21c.09,0,1.37-.08,1.37-.08a.57.57,0,0,0,.18-.11l.21-.22a.78.78,0,0,0,0-.19c0-.09,0-.34,0-.34a.49.49,0,0,0-.13-.15c-.09-.07-.26-.26-.36-.25l-1.3,0-.31.19h-.26a.94.94,0,0,0-.62-.36.76.76,0,0,0-.43-.25.41.41,0,0,0-.31-.26,2.08,2.08,0,0,0-.59,0,9,9,0,0,0-1.63-.39,14.81,14.81,0,0,1,.7-1.36,10.45,10.45,0,0,0,.68-1.42.32.32,0,0,0-.06-.37A10.77,10.77,0,0,0,75,14.61a1.92,1.92,0,0,0-.79-.22,3.19,3.19,0,0,1,1-.45,2.07,2.07,0,0,0,.79-.11c.12-.09,1.07-1.21,1.07-1.21a.42.42,0,0,0,.07-.41c-.09-.21-.4-.73-.41-.75s-.08-.13-.28,0-1.86.79-2.21.91-.55.21-.6.38,0,.25.14.26,1.16-.23,1.16-.23-.34.25-.72.56-.43.44-.78.54-.56.28-.73.26a5.36,5.36,0,0,0-.94-.09,1.75,1.75,0,0,0-.55-1s.47-.22.52-.4a2.78,2.78,0,0,0,0-.88.59.59,0,0,0-.56-.17c-.29.07-1.35.5-2.09.74s-2.26.83-3.27,1.11-2.89.71-3.82.9a1.74,1.74,0,0,0-1.3.76c-.19.23-.47.58-.94,1.21a8.43,8.43,0,0,0-1.2,2.1,7,7,0,0,0-.22.83L58.07,19c-.09-.09-.31-.17-.7-.06a17.31,17.31,0,0,0-2.42.77,6.52,6.52,0,0,0-1.41,1,11.65,11.65,0,0,1-1.23-.11A3.63,3.63,0,0,1,51,20.17a1.64,1.64,0,0,0-.73-.41s0-.67,0-.88a1.73,1.73,0,0,0-.23-.79,19.61,19.61,0,0,1-1-1.71,5.93,5.93,0,0,0-.84-1.44c-.35-.4-1.25-1.39-1.68-1.87a3.26,3.26,0,0,0-1.65-1,4.69,4.69,0,0,0-1.79-.27,1.38,1.38,0,0,0-.7-.28c-.34,0-1.79-.11-2.63-.13s-3.24,0-3.69.07-1.42.16-1.42.16-.72.08-1.07.16a1.49,1.49,0,0,0-.62.34,3,3,0,0,0-.63.33c-.36.24-2.06.94-2.06.94l.24-.47c.16-.05.17-.41.17-.41a5.61,5.61,0,0,0,1.86-1.23,11,11,0,0,0,3,.06,4.55,4.55,0,0,0,.89-.15.24.24,0,0,0,.18.07c.11,0,2,0,2.26,0s.44-.43.44-.43l.4.06a.41.41,0,0,0,.46.31c.31,0,.49-.16.54-.42a.56.56,0,0,0-.16-.45l3.5,0a.27.27,0,0,0,.41-.09s.53,0,.88,0,.55-.3.53-.8-.31-.72-.51-.72h-.91A.33.33,0,0,0,44,8.58l-4.44.09a.75.75,0,0,0-.22-.28S39.18,8,39.15,8A1.44,1.44,0,0,0,39,7.59c-.09-.09-.12-.13-.19-.13s-.12-.07-.24-.13a2.54,2.54,0,0,0-.73,0,.43.43,0,0,0-.27.1.54.54,0,0,0-.1-.13,3.31,3.31,0,0,0-.89,0c-.1.06-.79.64-.85.69s-.08.25-.08.25l-.11.16a3.39,3.39,0,0,0-.56,0c-.25,0-.25.35-.25.35s-.13.17-.13.17a2.53,2.53,0,0,0-1.56.49l-.13,0c-.05-.1-.13-.26-.58-.19a.58.58,0,0,0-.49.51l-.66,0c-.14-.31-.46-.3-.8-.28a.49.49,0,0,0-.43.32,7.25,7.25,0,0,0-2.95.57c-.07-.1-.46-.48-.46-.48a2.23,2.23,0,0,0-.31-1.42,1.18,1.18,0,0,0,.68-.81c0-.31.07-1.43.07-1.43a11.76,11.76,0,0,1,1.91-.07,4,4,0,0,0,1.92-.38A1.8,1.8,0,0,0,31.67,5a18.19,18.19,0,0,0,.55-2.77c.1-.93.15-1.22-.31-1.48a9.16,9.16,0,0,0-1.85-.7A1.34,1.34,0,0,0,29,.21a2.84,2.84,0,0,0-.52.35A25.09,25.09,0,0,0,24.84.19c-1.68,0-2.7.15-3.35.74S19,3.82,18.58,4.38,16.47,7,16.27,7.19a23.49,23.49,0,0,0-1.49,2.09c-.51.8-1.18,1.65-1.5,2.16l-.51.81a2,2,0,0,0-.39-.12s-.12-.22-.27-.21a.73.73,0,0,0,0-.27,4.4,4.4,0,0,0-.41-1c-.12-.14-3.22-2.85-3.22-2.85a1.2,1.2,0,0,0,0-.46A1.74,1.74,0,0,0,9,6.94a2.28,2.28,0,0,0-.09-1A10.41,10.41,0,0,0,7.64,3.47c-.7-1-.92-1.3-1.13-1.23a1.81,1.81,0,0,0-.78.42,10.94,10.94,0,0,0-1.18,2c-.25.67-.17.86,0,1.11A31.89,31.89,0,0,0,7.19,8.29s-.05.32,0,.45S9.8,12.26,9.9,12.41a4.5,4.5,0,0,1,.23.42s.31.61.38.71.24.07.35.21.47.7.47.7a10.94,10.94,0,0,1-.82,1,34.65,34.65,0,0,0-2.44,3.39,16.69,16.69,0,0,0-1.07,2l-1,.88a2.8,2.8,0,0,0-.65.92,8.76,8.76,0,0,0-.47,1.47,4.67,4.67,0,0,0,.13,1,1.94,1.94,0,0,0-.27.53c0,.15.11.28.34.47l.83.7,2,.23,3.64,2.31s-.24.23-.25.34,0,.43,0,.5.14.23.14.23A17.35,17.35,0,0,0,9,31.17a20.32,20.32,0,0,0-3.73,2c-.68.52-.74.6-.63.83s1,0,1.39,0a12.89,12.89,0,0,0-1.89,1.8,18.5,18.5,0,0,0-2.79,4.44A16.73,16.73,0,0,0,0,46.49a15.54,15.54,0,0,0,2.55,9.23,12.43,12.43,0,0,0,7.63,5.4A12.41,12.41,0,0,0,19,59.7a15.71,15.71,0,0,0,4.89-4.51,16,16,0,0,0,1.76-3.43s.13.34.21.36.86.32,1.33.44,2,.19,2.45.22l6.92-.45A1.28,1.28,0,0,0,37.3,52l1.28-.77a1.58,1.58,0,0,0,.86.18,3.52,3.52,0,0,0,.78-.1s0,.41.63.36,4.58-.5,4.58-.5l1,.2a10.79,10.79,0,0,0,1.42.22c.33,0,2-.3,2-.3l1.38-.11a.92.92,0,0,1,.28-.13,2.62,2.62,0,0,1,.49,0c.13,0,2-.21,2-.21l1.88-.24a.86.86,0,0,0,.54-.32c.31-.33.74-.88.74-.88a11.74,11.74,0,0,0,2,2.63,9.68,9.68,0,0,0,4.69,2.64A10.13,10.13,0,0,0,70,54a11.18,11.18,0,0,0,4.31-3.64A16,16,0,0,0,77,43.94a16.28,16.28,0,0,0-.66-8.28,11.76,11.76,0,0,0-4.76-6.1,9.73,9.73,0,0,0-6.68-1.17s.06,0-.25-.43-.43-.45-.61-.48a.88.88,0,0,0-.35,0,1.14,1.14,0,0,0-.57-.68l1-.8a5.68,5.68,0,0,0,1.2-.26c.35-.15,3-2,3.23-2.13a1.2,1.2,0,0,0,.29-.39s.32,0,.57-.74l1.37-.94s.26,0,.6.53l2,2.95.74,2.41a.34.34,0,0,0,.35.24h.82l1.39,1.95a1.76,1.76,0,0,0,.58.36c.18.09.33.24.52.17s.45-.3.45-.43a3.78,3.78,0,0,0-.07-.77c-.06-.19-.28-1.18-.28-1.18l2.94.14s.29,0,.34-.06S81.13,27.55,81,27.19ZM7.91,42.77a4.74,4.74,0,0,1,1.2-1.27.59.59,0,0,1,.51-.09s-.72,2-.73,2.17a2.56,2.56,0,0,0,.16.57,6.24,6.24,0,0,1-.75.43,1.13,1.13,0,0,1-.63.16,1,1,0,0,1-.15-.44A7.46,7.46,0,0,1,7.91,42.77ZM9,45a12.07,12.07,0,0,0-.19,1.3,3.23,3.23,0,0,0-.39-.44.34.34,0,0,1,0-.49A3.76,3.76,0,0,1,9,45Zm-1.8,1.75c0-.2.34-.52.34-.52a1,1,0,0,1,.47.26c.23.22.76.64.76.64A9.23,9.23,0,0,0,9,49a6.13,6.13,0,0,1-.78-.61c-.48-.43-1-.94-1-.94S7.17,46.9,7.18,46.71Zm9.71,8a1.35,1.35,0,0,1-.31.48,7.74,7.74,0,0,1-2.81.81A6.64,6.64,0,0,1,9,54.68a8.47,8.47,0,0,1-1.86-1.86A.6.6,0,0,1,7,52.25c.06-.15.52-.21.52-.21a6.08,6.08,0,0,0,2.31,1.35,5.66,5.66,0,0,0,2.35.22,5.55,5.55,0,0,0,2.17.76,6,6,0,0,0,2.7-.26S17,54.44,16.89,54.71Zm48.58-7.48.88-.77a.23.23,0,0,0,.23-.05.35.35,0,0,0,.48.15.36.36,0,0,0,.49.13.38.38,0,0,0,.49.13.43.43,0,0,0,.52.15.3.3,0,0,0,.18.16,7.59,7.59,0,0,1-1.23,1.45,13.07,13.07,0,0,1-1.61,1.19,3.94,3.94,0,0,1-.91-.14,12.24,12.24,0,0,1-1.07-1.28S65,47.61,65.47,47.23Zm-1.81-.68c.4,0,.63,0,.63,0a5.06,5.06,0,0,1-.82,1.1,11.84,11.84,0,0,1-.54-1.3A1.62,1.62,0,0,0,63.66,46.55Z"/>
</svg>