<svg xmlns="http://www.w3.org/2000/svg" viewBox="0 0 97.56 55.74">
<path d="M95.75,34.86a14.39,14.39,0,0,0-4.08-4.39,5.76,5.76,0,0,1,1,0,1,1,0,0,0,.49.07c.08,0,0-.17,0-.17-2.28-1.85-6.67-2.76-7.91-2.93a17.16,17.16,0,0,0-2.51-.13L87,24.67l.82.17c.18,0,.68-.11,1.51-.21s1.32-.1,1.42-.14a.73.73,0,0,0,.3-.45,7,7,0,0,0-.39-1l.87-.21c.29-.07.32-.2.29-.4a8.16,8.16,0,0,0-1-1.91c-.52-.75-2.16-2.86-3.09-3.86a33.47,33.47,0,0,0-3.26-2.75,6.38,6.38,0,0,1,.81.26,1.58,1.58,0,0,1,.72.48c.14.13.5.26.64.13s0-.41-.36-.94S84,10.87,84,10.87s.57-1.61.85-2.3a8.11,8.11,0,0,0,.5-1.44,3.27,3.27,0,0,0-.12-.67,1.73,1.73,0,0,0,.15-.39,1.37,1.37,0,0,0,0-.37A4.5,4.5,0,0,0,86,3.09,15.12,15.12,0,0,0,84.47.6a2.29,2.29,0,0,0-1-.59C83.25,0,83.11.3,83,.65s-.49,1.73-.68,2.58A16.74,16.74,0,0,0,82,5.28c0,.22.11.31.42.42a2,2,0,0,0,.64.12.32.32,0,0,1,.17.07.12.12,0,0,1,0,.17c0,.07,0,.09.07.26s.29.62.29.62a1.15,1.15,0,0,1-.11.14s-1.3,1.66-1.3,1.66S81.05,7.49,81,7.46l-.44-.65A10.37,10.37,0,0,0,80,5,10.78,10.78,0,0,0,78.82,3a3.87,3.87,0,0,0-.92-.6c-.12-.05-.27,0-.44.15a8,8,0,0,0-.58.57l-3-3c-.09-.08-.31-.06-.55,0s-2,.7-2.19.79-.19.37-.19.37L69.33,2a.36.36,0,0,0-.22.3.46.46,0,0,0,.17.39c.14.13,1.26,1.11,1.46,1.22a2.38,2.38,0,0,0,.81.16c.28,0,.45.22,1.06.72a8.1,8.1,0,0,1,1.46,1.49,4.26,4.26,0,0,1,.27,1.19,1,1,0,0,0,.34.7c.18.14,1.91,1.19,1.91,1.19l-.33.57s-.64-.33-.82-.44a.8.8,0,0,0-.53-.14.36.36,0,0,0-.23.2,1.31,1.31,0,0,0-.09.52,1.25,1.25,0,0,0,.15.5.73.73,0,0,0-.36-.09.52.52,0,0,0-.4.22,3.72,3.72,0,0,0-.06.67,1.06,1.06,0,0,0-.11.36,4.59,4.59,0,0,0,.07.68.54.54,0,0,0,.21.3,1.59,1.59,0,0,0,.42,0l-.26.57-.85.1a2.57,2.57,0,0,0-.16-.67,1.39,1.39,0,0,1,.05-.23.64.64,0,0,0,0-.34c0-.09-.25-.06-.25-.06a5.28,5.28,0,0,0-.54-1.16c-.26-.35-1.08-.44-1.08-.44a.15.15,0,0,0-.24,0,.13.13,0,0,1-.09-.13.48.48,0,0,0-.18-.3c-.09-.08-.23-.21-.23-.32s-.12-.22-.13-.34-.13-.13-.16-.29-.16-.09-.18-.2a.69.69,0,0,0-.17-.24A3.94,3.94,0,0,1,70.21,8c.06-.16.22-.32.25-.49s.11-1.07.13-1.13.1,0,.08-.11A.8.8,0,0,0,70.3,6c-.15-.06-1.73-.22-1.92-.22A.5.5,0,0,0,68,6c-.06,0-.07.18-.08.3s0,.69,0,.69l-.2-.21a3,3,0,0,1-.17-.28.61.61,0,0,0-.33-.25l-.92-.13A.36.36,0,0,0,66,6a3.66,3.66,0,0,0-.48.1l-.19.19c-.06.06-.47.21-.53.26s0,.18,0,.18a1.35,1.35,0,0,0-.45.48.75.75,0,0,1-.27,0,1.2,1.2,0,0,0-.55.09,1.54,1.54,0,0,0-.55.46c0,.1,0,.22-.09.3s-.22.5-.22.5l-1,.06c-.23-.15-.57.11-.57.11s0,0-.16,0a.67.67,0,0,0-.52.65.63.63,0,0,0,.33.6,1.42,1.42,0,0,0,.43,0,.78.78,0,0,0,.28.1.49.49,0,0,0,.27-.09l1.27,0a.27.27,0,0,1-.08.12c-.06,0,0,.19,0,.28s.3.06.3.06a.57.57,0,0,0,.29.19,5.58,5.58,0,0,0,1.08,0c.23,0,1.47.14,1.47.14a.43.43,0,0,0,.14.18,2.13,2.13,0,0,0,.46,0l.17.79.34.6c.09.17.21.15.21.15a5,5,0,0,1,.78.09,7.15,7.15,0,0,1,.44,1s-.54.23-.57.26a.57.57,0,0,0,0,.18l-1.42.1c-.28,0-.35,0-.43-.08s-.38-.58-.57-.93-.56-.48-1.2-.72-3.2-1.39-3.55-1.54a1.33,1.33,0,0,0-.66-.12s0-.32-1.16-.48a33.5,33.5,0,0,0-6,0c-.72.19-1.77.19-2.75.33s-2.19,1.35-3.42,2.36-3,2.83-3.16,2.95a6.64,6.64,0,0,0-1,1.05c-.13.28-.48,1.37-.48,1.37-.37-.06-.34,0-1.14.36a15.24,15.24,0,0,1-4.89.63,29.4,29.4,0,0,1-5.22-.47A3.21,3.21,0,0,1,30,18.24a8.23,8.23,0,0,0-1.59-.75,6.16,6.16,0,0,0-.65-.14s-1.47-1.7-2.12-2.38a2.27,2.27,0,0,1-.74-1.54.81.81,0,0,0-.38-.63c-.14-.11-3.35-.51-3.35-.51l-4.86-.74s-2.22-.71-2.53-.74-.49,0-.6.11l-.27.3-1.83-.65A15.64,15.64,0,0,1,9.14,9.9a9.47,9.47,0,0,0-1.38-.49.77.77,0,0,0-.39,0,6.5,6.5,0,0,0-.93-.27.55.55,0,0,0-.4.18c-.11.1,0,.24,0,.24a6.52,6.52,0,0,0,.73.61c.35.23.79.47.79.47s2.69,1.22,3,1.28.87.21.87.21l-1,.07-.34-.16-2.46.27-1,.59,0,.18-.89.21-.23.5L6,15.42a2.11,2.11,0,0,1,.28.33c.12.18.25.18.25.18s0,.17,0,.29a1,1,0,0,0,.16.42,3.53,3.53,0,0,0,.59.45l-1.6.22s-3.34.55-3.57.55a.32.32,0,0,0-.29.22,2.87,2.87,0,0,1-.4,0,2.74,2.74,0,0,0-1,.27,2.52,2.52,0,0,0-.31.67L1.78,19l.07.21.64.29a.5.5,0,0,0,.09.2,4,4,0,0,0,.6.12,3.49,3.49,0,0,1,.44.28l-.21,0a1.61,1.61,0,0,0-.23.12s0,.68,0,.72a2.28,2.28,0,0,0,.08.71c.08.09.43.08.43.08l0,.32-1.2.14a.41.41,0,0,0-.3.17S.26,26.83.1,27.14s-.11.5.1.42,1.43-.38,1.43-.38-.81,2-.87,2.2A1,1,0,0,0,.89,30c.08,0,.18-.11.35-.29s4.46-6,5.36-7.22,1.47-2,1.47-2a1.52,1.52,0,0,0,1.25,1.91,1.41,1.41,0,0,0,1.14-.31,1.07,1.07,0,0,0,.72.07,1.37,1.37,0,0,0,1.22-1.4,1.39,1.39,0,0,0-.72-1.22L13,19.41s1.09.48,1.33.55a3.43,3.43,0,0,0,.76.08s3.32,1.31,3.64,1.45a11.26,11.26,0,0,1,1.08.81,4.4,4.4,0,0,0,.85.36,2.86,2.86,0,0,0,1.2.67S25.7,24.84,26,24.94a1.74,1.74,0,0,0,.74,0l2.32,1.34-.7,2.57s-6-2.26-6.34-2.34-.19.05-.19.05a6.91,6.91,0,0,0,.55.57,1.4,1.4,0,0,0,.3.09l.54.51L25,29a14.77,14.77,0,0,0-9.13-1.53,15.27,15.27,0,0,0-8,4.23A14.85,14.85,0,0,0,4,39.31a15.46,15.46,0,0,0,.73,7.17,14.92,14.92,0,0,0,2.92,4.81,15.43,15.43,0,0,0,6.59,4A17.75,17.75,0,0,0,23.41,55a14.72,14.72,0,0,0,5.91-4.35,13.85,13.85,0,0,0,2.39-4.27,2.25,2.25,0,0,0,.35,0c.1,0,.32-.29.43-.27l.48.1,2.12.25.06.24,0,.54-.08.06a3.76,3.76,0,0,0,0,.5,1.91,1.91,0,0,0,.14.48c0,1.27.72,1.41,1.08,1.43s1.72,0,2.21,0,.32-.07.4-.07a1.86,1.86,0,0,1,.36.12s1.78,0,1.94,0a.41.41,0,0,0,.25-.11l.76,0a1,1,0,0,1,.29.09l1.37,0a1.85,1.85,0,0,1,.28-.09c.07,0,.24.13.24.13h1.85a4.44,4.44,0,0,0,.58,0c.2,0,.34-.23.34-.23l.21-.06h.5a.14.14,0,0,0,.15-.11s5.82,0,6.08-.06a1.43,1.43,0,0,0,.57-.24,2.38,2.38,0,0,0,.45,0c.15,0,.14-.11.14-.11h1.83a1.73,1.73,0,0,0,.41.22,3.93,3.93,0,0,0,.61.07.26.26,0,0,0,.15-.08,3.34,3.34,0,0,0,1-.17,4.13,4.13,0,0,0,1-.67.93.93,0,0,1,.24,0,4,4,0,0,1,.82.57,1.07,1.07,0,0,0,.8.31,9.39,9.39,0,0,0,1.14,0l6-.29c.2,0,.15-.27.15-.27s.44-5.58.46-5.85,0-1,0-1l.5-.06a13.62,13.62,0,0,0,3.86,9.41,13.42,13.42,0,0,0,18.19,1,13.69,13.69,0,0,0,5-9A13.21,13.21,0,0,0,95.75,34.86Zm-72.43,9c.08-.33.19-.71.24-.94s.09-.55.18-.42a4.05,4.05,0,0,0,.92,1c.43.26.63.38.75.36l.24,0s0,.1-.83.42l-2,.75A6.47,6.47,0,0,0,23.32,43.89Zm-1.8-8.66c0,.06-.26.28-.26.28a.77.77,0,0,0-.37.1c-.09.09-.16.06-.33,0a.63.63,0,0,0-.33,0,.79.79,0,0,0-.51-.2c-.07,0-.06-.07.17-.09s1.22-.09,1.39-.12S21.53,35.16,21.52,35.23Zm-2.9-.53c0-.09-.14-.21-.24-.23a.22.22,0,0,0-.19.09l-.53-.42a.12.12,0,0,1,.09-.08l.18,0a1.84,1.84,0,0,1,1-.15,6.25,6.25,0,0,1,1.51.48c.35.11.22.15.22.15Zm-1.29-1.81a15.58,15.58,0,0,1,2.49.1,6.5,6.5,0,0,1,1.2.37c.19.09.42.85.42.85a4.07,4.07,0,0,1-.92-.43,3.61,3.61,0,0,0-2-.48,3.08,3.08,0,0,0-1.31.54s-.46-.24-.48-.5S17,32.91,17.33,32.89ZM12.18,43.43c0,.31-.25,3.15-.28,3.34a.44.44,0,0,1-.41.34c-.16,0-.64-.62-.84-1.07S10,44.9,9.89,44.41a5.54,5.54,0,0,1-.19-.67,1.37,1.37,0,0,1,0-.53c0-.13.06-.22.32-.45a12.91,12.91,0,0,1,1.24-.93c.24-.12.74-.4.86-.2a6.51,6.51,0,0,0,0,1A3.18,3.18,0,0,1,12.18,43.43ZM10,41.62c-.24.14-.4.11-.51-.06a2.69,2.69,0,0,1,0-1c0-.15.18-.87.23-1.32a7.54,7.54,0,0,1,.64-1.55,15.22,15.22,0,0,1,1-1.6,14.1,14.1,0,0,1,1.1-1.1A10,10,0,0,1,13.75,34c.42-.24.94-.5.94-.5a.94.94,0,0,1,.9.06,9.79,9.79,0,0,1,1.05.68l-.55.42a1.88,1.88,0,0,0-.18.25l-2.85.31s-.3.11-.1.24a8.55,8.55,0,0,0,1.08.38l1-.06s.15.18.19.17-.06.23-.06.23a.77.77,0,0,0-.2.24.3.3,0,0,0,.06.24s-.13.32-.15.35a5.66,5.66,0,0,0-1.69,1.49,4.23,4.23,0,0,0-.82,1.56S10.25,41.48,10,41.62Zm12.58,7.54c0,.17-.24.21-.56.37a8.07,8.07,0,0,1-2.52.74,11.82,11.82,0,0,1-4-.36,4.89,4.89,0,0,1-2-1,4.05,4.05,0,0,1-.74-.48c-.18-.17-.11-.78-.11-1.31s.23-2.26.23-2.26A15.35,15.35,0,0,0,14,46.3a5.61,5.61,0,0,0,3.18,1.41,6.82,6.82,0,0,0,2.69-.29,11.89,11.89,0,0,0,2.52,1.21C22.76,48.76,22.63,49,22.59,49.16Zm3.63-3.79a18.9,18.9,0,0,1-1.6,2.27c-.59.61-.68.63-1.05.59a12.44,12.44,0,0,1-1.87-.84c-.2-.18-.37-.44-.27-.63a11.68,11.68,0,0,1,1.44-.8,10,10,0,0,1,1.51-.72c.21-.07.33,0,.45-.06S25,45,25.1,45a.52.52,0,0,0,.41,0c.2-.08.15-.18.24-.21s.34.13.42.05l.14-.15A1.14,1.14,0,0,1,26.22,45.37Zm5.27-15.74c-.25.2-.45.38-.45.38L30,29.49s.16-.56.23-.87.26-.93.31-1a4.14,4.14,0,0,0,.14-.39l2,1.15s.15.18,0,.28S31.73,29.44,31.49,29.63ZM38.17,32a.47.47,0,0,0-.18-.22.73.73,0,0,0-.4,0,22.76,22.76,0,0,0-3.66-1.17c-1.35-.22-1.4-.15-1.4-.15s0-.17.18-.27,1.36-1,1.36-1l4.35,2.55a1.33,1.33,0,0,0,.14.35l.08.1Zm50.11,2.12a7.38,7.38,0,0,1,2,1.43,17.07,17.07,0,0,1,1.27,1.71c.09.13.21,0,.31.28s.18.53.33.84a1.5,1.5,0,0,1,.23.6,1.84,1.84,0,0,0,.07.58c.06.23.18.62,0,.87s-.86,1.11-.9,1.14a8.29,8.29,0,0,0-1.08-3.34,8.11,8.11,0,0,0-3.15-2.68Zm.32,8.2a4.57,4.57,0,0,1-.14,1A5.1,5.1,0,0,1,88,44s-.08.11-.13.1-.25-.07-.25-.17a2.24,2.24,0,0,1,.21-.9A4.85,4.85,0,0,1,88.6,42.31Zm-4.33,3.5a1.93,1.93,0,0,1,1.16-.32c.31,0,.53.14.49.24a1.59,1.59,0,0,1-.9.71,2.1,2.1,0,0,1-1.07.25,1.05,1.05,0,0,1-.54-.1A2.62,2.62,0,0,1,84.27,45.81Zm-4.57-1.5c0-.09,0-.2.12-.15s.18.18.26.13l.83-.43A.12.12,0,0,1,81,44c0,.11.23,1,.23,1.24a1.55,1.55,0,0,1-.09.4l-.36.1a.81.81,0,0,1-.6-.22c-.08-.11-.44-.86-.44-.86C79.72,44.45,79.69,44.39,79.7,44.31Zm-3.13.91c-.13.1-.19.26-.4.24s-.3-.37-.37-.53a11.61,11.61,0,0,1-.58-2.74,12.2,12.2,0,0,1,.35-2.91,10.3,10.3,0,0,1,.91-1.92,1,1,0,0,0,0,.35.12.12,0,0,0,.14,0s-.17.61-.19.79-.07.48-.07.48-.18,0-.18.06a.74.74,0,0,1,0,.16s-.3.18-.32.27-.15.48-.09.6a1.19,1.19,0,0,0,.16.23s0,.21,0,.25a.86.86,0,0,1,.07.14,5.69,5.69,0,0,0-.16.78,1.26,1.26,0,0,1-.07.38s-.22,0-.24,0a1.25,1.25,0,0,0-.06.42.19.19,0,0,0,.13.16.37.37,0,0,1,.19.23c0,.08.08.77.36.91s.37.18.4.11a.23.23,0,0,1,.07-.12s.06.57.27.67a.78.78,0,0,0,.28.11A6.37,6.37,0,0,1,76.57,45.22Zm3.17,4c-.2.14-.4.08-.72-.15s-1.46-1.29-1.74-1.58a2,2,0,0,1-.51-.92,4.43,4.43,0,0,1,.52-1.21l.27-.34a4.22,4.22,0,0,0,.79,1.1c.47.45,1,.92,1,.92s.19.86.29,1.23S79.93,49,79.74,49.18ZM90.6,47.37A9.9,9.9,0,0,1,86.85,50a6.57,6.57,0,0,1-3.63.44A6.06,6.06,0,0,1,81,49.94a6.47,6.47,0,0,1-.85-2.31,5.48,5.48,0,0,0,2.23,1.22A8.14,8.14,0,0,0,87,48.67a8.56,8.56,0,0,0,3-2.36s.87,0,1,.24S91,46.93,90.6,47.37Zm2-4A17.2,17.2,0,0,1,92,45.28a.89.89,0,0,1-.52.34l-.92.05A8.41,8.41,0,0,0,91.26,44a7.9,7.9,0,0,0,.28-1.64l.65-.68c.12-.14.37-.2.45-.06A7.24,7.24,0,0,1,92.56,43.41Z"/>
</svg>