<svg xmlns="http://www.w3.org/2000/svg" viewBox="0 0 81.17 61.42">
<path d="M81.17,46.49a16.7,16.7,0,0,0-1.36-6.24A18.2,18.2,0,0,0,77,35.81,13.14,13.14,0,0,0,75.14,34c.36,0,1.26.17,1.38,0s0-.31-.63-.83a20.32,20.32,0,0,0-3.73-2,16.93,16.93,0,0,0-2.39-.71s.14-.16.14-.23,0-.38,0-.5-.24-.34-.24-.34l3.64-2.31,2-.23.83-.7c.22-.19.34-.32.33-.47a1.94,1.94,0,0,0-.27-.53,5.25,5.25,0,0,0,.14-1,9.79,9.79,0,0,0-.47-1.47,2.69,2.69,0,0,0-.66-.92c-.29-.27-1-.88-1-.88a17.75,17.75,0,0,0-1.08-2,34.65,34.65,0,0,0-2.44-3.39c-.51-.58-.82-1-.82-1s.36-.56.47-.7.27-.11.35-.21.39-.71.39-.71a3.63,3.63,0,0,1,.22-.42c.1-.15,2.57-3.53,2.66-3.67s0-.45,0-.45a28.89,28.89,0,0,0,2.64-2.52c.17-.25.25-.44,0-1.11a10.94,10.94,0,0,0-1.18-2,1.72,1.72,0,0,0-.77-.42c-.22-.07-.44.23-1.14,1.23A10.24,10.24,0,0,0,72.31,5.9a2,2,0,0,0-.09,1c.08.17.51.4.51.4a1.2,1.2,0,0,0,0,.46s-3.1,2.71-3.22,2.85a4.4,4.4,0,0,0-.41,1,.73.73,0,0,0,0,.27c-.15,0-.27.21-.27.21a1.71,1.71,0,0,0-.38.12s-.21-.31-.52-.81-1-1.36-1.5-2.16A23.49,23.49,0,0,0,64.9,7.19C64.7,7,63,4.93,62.6,4.38S60.32,1.51,59.68.93,58,.16,56.33.19a25.09,25.09,0,0,0-3.59.37,2.45,2.45,0,0,0-.52-.35A1.34,1.34,0,0,0,51.11.05a9.16,9.16,0,0,0-1.85.7c-.46.26-.4.55-.31,1.48A18.19,18.19,0,0,0,49.5,5a2,2,0,0,0,1.44,1.12,8.67,8.67,0,0,0,2.3.15,2.18,2.18,0,0,1,1,.16A8.51,8.51,0,0,0,54.33,8c.11.29.81.62.81.62a1,1,0,0,1-.18.11c-.09,0,0,.13,0,.13a1.12,1.12,0,0,1,.18.23c0,.1,0,.16-.07.27a1.56,1.56,0,0,0,0,.31.53.53,0,0,0-.13.06c-.06,0-.86.8-.93.89s0,.26,0,.28l-.9-.05a1.11,1.11,0,0,0-.09-.16c0-.09-.26,0-.26,0l-.12-.18c0-.07-.31,0-.38.05a.21.21,0,0,0-.11.11l0,.15a4.81,4.81,0,0,0-.74.32l-.88-.55c-.09,0-.21.12-.21.12l-.24-.26s.33-.39.24-.65A.35.35,0,0,0,50,9.53h-.5a6.89,6.89,0,0,1,.4-.73,1,1,0,0,0,.19-.51c0-.19.17-1,.18-1.11A.25.25,0,0,0,50.18,7c0-.06-.12-.13-.43-.16s-3.15-.2-3.36-.19a.78.78,0,0,0-.49.23c-.09.1-.06.27-.06.33s0,1.22,0,1.22l-.19,0a1,1,0,0,0-.34.05.21.21,0,0,1-.12,0l-.05-.23c.19,0,.32,0,.34-.29a.38.38,0,0,0-.22-.36A1.53,1.53,0,0,0,45,7.25c-.21-.21-.85-.13-.85-.13a.46.46,0,0,0,0-.15c0-.06-.16-.06-.6,0s-.54.24-.54.24-.42,0-.5.11a.3.3,0,0,0,0,.27c-.55.22-.63,1-.63,1a.69.69,0,0,0-.1.18l-4.47-.16a.33.33,0,0,0-.46.07l-.83,0c-.18,0-.68.05-.63.81s.47.74.47.74h.95s.09.14.2.14a1.07,1.07,0,0,0,.24-.06h2.27a.57.57,0,0,0-.15.48.54.54,0,0,0,.67.33c.32-.06.35-.29.35-.29l1.8-.06a.9.9,0,0,0,.7.41,5.93,5.93,0,0,0,.94,0,.36.36,0,0,0,.16.08.22.22,0,0,0,.15-.07l.44,0c.16,0,.34,0,.38,0s.1-.11.16-.1l.26,0s.06.11.12.12.08-.1.08-.1a1.81,1.81,0,0,0,.41.14,1.67,1.67,0,0,0,.45,0s0,.18,0,.21a.72.72,0,0,1,.13.14s-1-.14-1.41-.16-2.85-.09-3.69-.07-2.3.12-2.64.13a1.43,1.43,0,0,0-.7.28,4.69,4.69,0,0,0-1.79.27,3.26,3.26,0,0,0-1.65,1c-.43.48-1.33,1.47-1.67,1.87a5.64,5.64,0,0,0-.85,1.44,19.8,19.8,0,0,1-1,1.71,1.64,1.64,0,0,0-.24.79c0,.21,0,.88,0,.88a1.64,1.64,0,0,0-.73.41,3.57,3.57,0,0,1-1.26.41,12,12,0,0,1-1.24.11,6.52,6.52,0,0,0-1.41-1,16.9,16.9,0,0,0-2.42-.77c-.39-.11-.61,0-.7.06l-.22.24a7,7,0,0,0-.22-.83,8.43,8.43,0,0,0-1.2-2.1c-.46-.63-.74-1-.94-1.21a1.74,1.74,0,0,0-1.29-.76c-.93-.19-2.82-.61-3.83-.9s-2.52-.88-3.27-1.11-1.8-.67-2.08-.74a.58.58,0,0,0-.56.17,2.48,2.48,0,0,0,0,.88c0,.18.52.4.52.4a1.75,1.75,0,0,0-.55,1,5.45,5.45,0,0,0-.94.09c-.17,0-.38-.16-.73-.26s-.41-.22-.78-.54-.72-.56-.72-.56S7.32,13,7.43,13s.19-.09.14-.26-.26-.27-.61-.38-2-.81-2.2-.91-.28,0-.29,0-.31.54-.41.75a.42.42,0,0,0,.07.41s1,1.12,1.07,1.21a2.11,2.11,0,0,0,.79.11,3.19,3.19,0,0,1,1,.45,1.92,1.92,0,0,0-.79.22A10.64,10.64,0,0,0,5,15.53.33.33,0,0,0,5,15.9a9.86,9.86,0,0,0,.69,1.42c.41.72.69,1.36.69,1.36a9,9,0,0,0-1.63.39,2,2,0,0,0-.59,0,.41.41,0,0,0-.31.26.76.76,0,0,0-.43.25.94.94,0,0,0-.62.36H2.49l-.31-.19-1.3,0c-.09,0-.27.18-.36.25a.38.38,0,0,0-.12.15s0,.25,0,.34a1.13,1.13,0,0,0,0,.19l.21.22A.57.57,0,0,0,.81,21S2.08,21,2.17,21a1,1,0,0,0,.27-.12l.68,0c.12.12.46.07.46.07l.46.35a.21.21,0,0,0-.2.25s0,.66,0,.91a.27.27,0,0,0,.23.27h.29l-.07.35-2.65.05a.37.37,0,0,0-.36.29s-1,3.37-1.13,3.73a1.55,1.55,0,0,0-.16.69c0,.06.34.06.34.06l2.94-.14S3.07,28.79,3,29a4.54,4.54,0,0,0-.06.77c0,.13.25.36.44.43s.34-.08.52-.17a1.66,1.66,0,0,0,.58-.36L5.88,27.7H6.7a.35.35,0,0,0,.36-.24L7.79,25s1.71-2.46,2-2.95.6-.53.6-.53l1.37.94c.25.72.57.74.57.74a1.41,1.41,0,0,0,.29.39c.18.16,2.88,2,3.23,2.13A5.86,5.86,0,0,0,17.1,26l.95.8a1.18,1.18,0,0,0-.57.68.85.85,0,0,0-.35,0c-.18,0-.29.09-.6.48s-.25.43-.25.43a9.75,9.75,0,0,0-6.69,1.17,11.81,11.81,0,0,0-4.76,6.1,16.39,16.39,0,0,0-.66,8.28,15.9,15.9,0,0,0,2.71,6.39A11.15,11.15,0,0,0,11.18,54a10.16,10.16,0,0,0,6.16.68A9.69,9.69,0,0,0,22,52a12,12,0,0,0,2-2.63,15.76,15.76,0,0,0,1.94,1.11c.34.07,1.64.24,1.64.24s1.71.25,1.89.26a2.71,2.71,0,0,0,.45,0,1.07,1.07,0,0,0,.52.18l2,.28a5.65,5.65,0,0,0,.86.13,2.17,2.17,0,0,0,.7-.08,3.38,3.38,0,0,1,.72-.08.86.86,0,0,0,.44-.09s4.14.51,4.54.49.5-.18.5-.18a3.62,3.62,0,0,0,.44,0l1.15.12s.31.15.46.24a1.54,1.54,0,0,0,.67.16.72.72,0,0,0,.34-.06c.4,0,.58,0,.58,0a1.29,1.29,0,0,0,.74.34l6.91.45c.46,0,2-.11,2.45-.22s1.26-.41,1.34-.44.2-.36.2-.36a15,15,0,0,0,6.65,7.94,12.09,12.09,0,0,0,16.45-4A15.63,15.63,0,0,0,81.17,46.49Zm-64.92,3a2.39,2.39,0,0,1-.87.18,5.21,5.21,0,0,1-1.61-1c-.46-.45-1.26-1.46-1.26-1.46a3.15,3.15,0,0,0,2.13-.89,32.64,32.64,0,0,0,2.6,2A7.36,7.36,0,0,1,16.25,49.54ZM74,46.71c0,.19,0,.72,0,.72l-1,.94a6.57,6.57,0,0,1-.79.61,9.23,9.23,0,0,0,.23-1.89s.53-.42.76-.64a1,1,0,0,1,.48-.26S74,46.51,74,46.71ZM72.19,45a3.76,3.76,0,0,1,.58.37.33.33,0,0,1,0,.49,3.23,3.23,0,0,0-.39.44A12.07,12.07,0,0,0,72.19,45Zm-.13-3.46a4.59,4.59,0,0,1,1.2,1.27,8.3,8.3,0,0,1,.4,1.53,1.08,1.08,0,0,1-.16.44,1.13,1.13,0,0,1-.63-.16,5.67,5.67,0,0,1-.74-.43,2.65,2.65,0,0,0,.15-.57c0-.13-.73-2.17-.73-2.17A.59.59,0,0,1,72.06,41.5Zm2,11.32a8.83,8.83,0,0,1-1.87,1.86A6.63,6.63,0,0,1,67.41,56a7.78,7.78,0,0,1-2.82-.81,1.35,1.35,0,0,1-.31-.48c-.09-.27-.19-.6-.19-.6a6,6,0,0,0,2.7.26A5.55,5.55,0,0,0,69,53.61a5.71,5.71,0,0,0,2.36-.22A6.11,6.11,0,0,0,73.62,52s.46.06.53.21A.63.63,0,0,1,74.06,52.82Z"/>
</svg>