<svg xmlns="http://www.w3.org/2000/svg" viewBox="0 0 50.96 65.38">
<path d="M38.61,9s1.71-1.53,2.21-2a2.72,2.72,0,0,1,1-.68c.15,0,.54-.46.75-.47a.73.73,0,0,1,.08-.4,3.79,3.79,0,0,1,.47-.92A9.81,9.81,0,0,1,44.35,3,13.76,13.76,0,0,1,47.61.76c.6-.07,3.12.78,3.28,1.23s0,.71-.4,1.56a7.56,7.56,0,0,1-1.66,2.66,4.41,4.41,0,0,1-2,.76,5.24,5.24,0,0,1-1.42,0l-1.31.29a1.32,1.32,0,0,1-.54-.08.47.47,0,0,1-.28.34c-.26.14-1.9,1-2.22,1.15A6.87,6.87,0,0,0,40,9.49l3.59.09a.37.37,0,0,1,.48.07,3.89,3.89,0,0,1,1.08.08,1.08,1.08,0,0,1,0,1.34.51.51,0,0,0,.28,0,.44.44,0,0,1,.54.4c0,.36-.15.55-.43.56s-.38,0-.52-.22l-1.23-.07c-.73-.06-3.41-.35-3.41-.35s-.3,0-.66,0a8.92,8.92,0,0,1-.91,0,.64.64,0,0,1-.32.56,1,1,0,0,1-.64.05v.8a1.29,1.29,0,0,1-.12.68l-.07.06a8.89,8.89,0,0,1,.45,1,1.9,1.9,0,0,1,.17.8c0,.09-.1.2-.1.2a3.43,3.43,0,0,1,.4.18,3.63,3.63,0,0,1,1,.75,4,4,0,0,1,.22.94c0,.16,0,.27-.15.33s-.77.34-.77.34a4.37,4.37,0,0,1,1.15.63c.16.24.22.44.06,1s-.53,1.74-.53,1.74.29.11.28.27-.18.65-.25,1-.14.89-.14.89.28,0,.67.35a6.64,6.64,0,0,1,.86.85,1.28,1.28,0,0,1-.14.72.84.84,0,0,1-.49.48c-.19.05-1.07.14-1.07.14l.26.6s.55,0,.58.23a.67.67,0,0,1-.31.62,4.25,4.25,0,0,1,.25,1,8.49,8.49,0,0,1-.31,1.61c-.1.32-.29,1.05-.29,1.05h1.51l.61.37v.76l-.59.39-2,.09s-.39,2.29-.8,4.06-.72,3.21-.78,3.58-.1,1.25-.17,1.34a7.86,7.86,0,0,0,1.15-.08c.38-.08.54,0,.62.08s.12.23,0,.32l-.06.68a3.56,3.56,0,0,1,.11.62.27.27,0,0,1-.22.23c-.1,0-.25,0-.32-.2s-.13-.53-.13-.53a.86.86,0,0,1-.26.11L37,43.28a1.51,1.51,0,0,1-.08.48,1.29,1.29,0,0,1-.32.53,2,2,0,0,1-.58.14l-.16.32s.29,0,.32,0,0,.11.08.12.09,0,.09.13,0,.42-.06.42h-.09s0,.16-.09.18l-.14.06a1,1,0,0,0-.31.1l-.54.33s-.71,1.33-1.51,2.51A19.39,19.39,0,0,0,32,51.2,10,10,0,0,1,30.85,53,8.8,8.8,0,0,1,30,54a2,2,0,0,1-.72.46s0,2.67-.11,3h-.28l-.09-1.53v3.31c0,.19-.06,2.85-.13,3.39A3.22,3.22,0,0,1,27,65a3.26,3.26,0,0,1-3.27-.09,3.38,3.38,0,0,1-1.55-3.05c0-1.27-.11-4.79-.11-4.79l-.05.39h-.25a6.74,6.74,0,0,1-.11-1.36c0-.87,0-1.58,0-1.58a1.93,1.93,0,0,1-.77-.57,18.59,18.59,0,0,1-1.63-2.14c-.3-.52-.7-1.42-.86-1.58a12.52,12.52,0,0,1-1.49-1.74c-.56-.84-1.62-3-1.62-3s-.3,0-.31-.14,0-.4.09-.42-.49-1-.54-1.15a1.77,1.77,0,0,1-.07-.39l-1.5-.29a.71.71,0,0,1-.31-.17s-.18.56-.22.65a.29.29,0,0,1-.29.12.33.33,0,0,1-.2-.37,4,4,0,0,1,.12-.47s0,0,0-.14,0-.6,0-.6a.48.48,0,0,1,0-.18c0-.07.2-.27.31-.24s1.53.19,1.53.19-.06-.59-.16-1.21-.34-1.42-.56-2.52-.58-2.69-.72-3.5S12,33,12,32.87l-2-.08-.6-.45v-.71l.56-.41h1.58a16.14,16.14,0,0,1-.47-1.74A3.41,3.41,0,0,1,11,28.13a4.62,4.62,0,0,1,.21-.54,2,2,0,0,1-.32-.44.25.25,0,0,1,.13-.33,1.35,1.35,0,0,1,.45-.1l.24-.61s-1-.06-1.12-.1-.36-.41-.41-.55-.26-.58-.14-.72a10.4,10.4,0,0,1,1.16-1l.42-.18s-.21-.88-.32-1.36-.15-.54-.06-.62l.24-.15a11.34,11.34,0,0,1-.51-1.5c-.18-.73-.2-1,0-1.22a8.19,8.19,0,0,1,1.2-.66s-.6-.24-.81-.35a.37.37,0,0,1-.19-.4,2.24,2.24,0,0,1,.42-1,13,13,0,0,1,1.2-.76,1.39,1.39,0,0,1-.08-.38c0-.11.45-1.28.48-1.37a.46.46,0,0,1,.11-.18s-.12,0-.15-.54a7,7,0,0,1,0-1.07,2.42,2.42,0,0,1-.45.05,1,1,0,0,1-.74-.14c-.27-.15-.27-.37-.84-.36s-5,.24-5,.24a.56.56,0,0,1-.45.27.46.46,0,0,1-.57-.4.49.49,0,0,1,.72-.48.87.87,0,0,1-.26-.71c0-.46.22-.73.48-.75s.91,0,.91,0,.2-.27.39-.05l3.58-.08a4.33,4.33,0,0,0-.86-.75C9.7,8.57,7.77,7.61,7.61,7.5a.89.89,0,0,1-.24-.34,2.76,2.76,0,0,1-.44.11C6.84,7.28,5.61,7,5.5,7a2.75,2.75,0,0,0-.59,0,3.6,3.6,0,0,1-1.69-.21A3,3,0,0,1,1.62,5.7,30.87,30.87,0,0,1,.14,2.9c-.18-.42-.23-.81.11-1a8.81,8.81,0,0,1,3-1A7.53,7.53,0,0,1,5.67,2.23,6.91,6.91,0,0,1,7.55,4.08a6.65,6.65,0,0,1,.74,1.21c.08.23.17.28.14.6a1.22,1.22,0,0,1,.3.16c.23.16.32.28.47.31a1.32,1.32,0,0,1,.58.37c.32.26,2.38,2.14,2.38,2.14a1.16,1.16,0,0,1,.16-.33.35.35,0,0,1-.06-.25c0-.15.19-.23.42-.29a2.46,2.46,0,0,1,.45-.07,1.14,1.14,0,0,1,.44-.11,2,2,0,0,1,.31,0,1.08,1.08,0,0,1,.58-.16s.16-.21.21-.3.54-.1.54-.1l1.12,0a1.24,1.24,0,0,1,.09-.38c.08-.14.32-.74.38-.87a1.05,1.05,0,0,0,.09-.45c0-.08-.41-1.42-.41-1.42a1.35,1.35,0,0,1-.3,0c-.19,0-.23-.14-.28-.33s-.29-1-.32-1.16a.68.68,0,0,1,.06-.5,3.35,3.35,0,0,1,.64-.55,1.65,1.65,0,0,1,.7-.3c.41-.11,2.79-.69,3.95-.88A32.47,32.47,0,0,1,25.06,0,24.45,24.45,0,0,1,29.3.28c1.56.23,5,1,5.16,1.1s.78.5.86.77a1.16,1.16,0,0,1,0,.73c-.08.3-.24.81-.29,1a.31.31,0,0,1-.32.24h-.23s-.3,1.11-.35,1.38a1.76,1.76,0,0,0,.18.89,4.38,4.38,0,0,1,.34.88c.08.37.15.77.19,1a1,1,0,0,1-.28.81,1.92,1.92,0,0,1,.41.05c.08,0,.12,0,.15-.08s.06-.33.13-.46a2.16,2.16,0,0,1,.4-.4A.61.61,0,0,1,36,8c.25,0,.67,0,.72.07a4.83,4.83,0,0,1,.93.05,1.69,1.69,0,0,0,.39.13.2.2,0,0,1,.2.18.59.59,0,0,0,.11.23Z"/>
</svg>