<svg xmlns="http://www.w3.org/2000/svg" viewBox="0 0 35.6 69.76">
<path d="M35.58,1C35.52.83,34.7.41,34.13.23S33.35,0,33,.11A11.43,11.43,0,0,0,30.41,1.9,4.21,4.21,0,0,0,29.54,3h-.15l-.29.21h-.37L27,4.94l-2.3,2.39a9.75,9.75,0,0,0-1.32-.11,2.32,2.32,0,0,0-.45.28.18.18,0,0,0-.06.24l-1.1.57,0-.5L24.3,6.55c.22-.12.21-.22.2-.34s-.08-.46-.13-.7A1.56,1.56,0,0,0,24.12,5a.29.29,0,0,1,0-.32c0-.11.18-.28.23-.37s.16,0,.25,0a.26.26,0,0,0,.3,0,4.49,4.49,0,0,0,.34-.47c.09-.15.06-.32-.18-.63a2.79,2.79,0,0,0-.62-.55,18.57,18.57,0,0,0-6.71-1.55,7.91,7.91,0,0,0-1.9.16,17.59,17.59,0,0,0-2.66.68c-.71.24-1.9.69-1.9.69s-.31.23-.4.31a3.8,3.8,0,0,0-.44.49.58.58,0,0,0,0,.37,3.47,3.47,0,0,0,.3.44.25.25,0,0,0,.27.12l.26-.16.39.58s-.17.29-.26.46a4.17,4.17,0,0,0-.25.95c0,.17.2.32.2.32L14,7.85s0,.44,0,.46S13.27,8,13,7.84a7.79,7.79,0,0,0-1.18-.5c-.16,0-.2,0-.29,0l-.35.21L9.76,6c-.53-.55-2.52-2.6-2.7-2.77s-.24-.17-.37-.16A.34.34,0,0,1,6.4,3a1.35,1.35,0,0,0-.3-.13s-.56-.73-1-1.17A11.61,11.61,0,0,0,3.13.3,1.41,1.41,0,0,0,2,0,6.41,6.41,0,0,0,.11.9c-.24.28,0,.54.16,1a9.32,9.32,0,0,0,1.2,1.93,2,2,0,0,0,1.2.45C3.11,4.27,4.05,4,4.5,4L5.65,3.9s.38.21.75.38A5.7,5.7,0,0,1,7.64,5C7.85,5.17,9.36,7,9.36,7l0,.24,0,.39a.72.72,0,0,0,.12.43c.08.1.42.14.42.14a2.91,2.91,0,0,0-.63.73c-.34,0-.36.16-.36.16l-.66.13c-.43.09-.54.25-.54.25H7.38c-.08,0-.23,0-.22.14s.15.18.26.18,0,.12,0,.12c-.24,0-.53.14-.83.18s-3.55.3-3.55.3a.34.34,0,0,0-.34-.18.35.35,0,0,0-.36.36A.41.41,0,0,0,2.6,11a.46.46,0,0,0-.19,0c-.11,0-.4.09-.32.67s.41.56.49.54.76-.15.76-.15.08.14.19.1A.45.45,0,0,0,3.69,12s3-.51,3.17-.56a2.77,2.77,0,0,1,.65-.07c.06,0,.29.33.29.33s-.1.29-.15.51-.16.7-.2.89a.59.59,0,0,0,.08.49,2,2,0,0,0,.41.32,7.69,7.69,0,0,0-.67.54c-.21.2-.2.26-.28.75a19.23,19.23,0,0,0-.2,2,.49.49,0,0,0,.2.47,5.39,5.39,0,0,0,.68.38l-.6.27c-.14.07-.08.11-.08.11l.27.49a2.15,2.15,0,0,0-.33,0,.87.87,0,0,0-.47.32.28.28,0,0,0-.07.34,7.72,7.72,0,0,0,.29.72,1.48,1.48,0,0,1,.17.33A.24.24,0,0,0,7,20.9a1.17,1.17,0,0,1,.3.27,1,1,0,0,0,.28.17s-.24.63-.39,1.1-.63,2.19-.68,2.39a1.41,1.41,0,0,0,0,.63c0,.1.76,1.32,1.11,1.86s1,2.11,1,2.11a3.93,3.93,0,0,0,0,.64.85.85,0,0,0,.22.48s0,.24,0,.34,0,.21.13.21h.4s.39.49.37.49a1.77,1.77,0,0,0-.06.3l-.12.1c-.06.05,0,.22,0,.35s-.07.45-.07.45,0,0-.33.07a.58.58,0,0,0-.43.46,4.05,4.05,0,0,0-.11.75c0,.06,0,2.29,0,2.74s.11.94.28,1a1.55,1.55,0,0,0,.46.24,3.24,3.24,0,0,0,.62,0l.15,1.14-.27.34c-.12.17-.64,1.45-.93,2.12l-.71,1.73c-.28-.26-.63-.05-.79.09a1.29,1.29,0,0,0-.36.48c-.09.2-.29,1-.29,1s0,0-.2,0a2.24,2.24,0,0,0-.7-.09.42.42,0,0,0-.31.23c-.05.07.08.22.08.22v.42a.2.2,0,0,0,.07.16s-.09.26-.14.45a.25.25,0,0,0,.18.34.22.22,0,0,0,.27-.11c0-.09.2-.58.2-.58a1.23,1.23,0,0,0,.37.16l.76.16a.47.47,0,0,0,.45.06s.72.18.92.2a2.81,2.81,0,0,0,.51,0c.08,0,.12-.23.12-.23a.8.8,0,0,0,.21.12.24.24,0,0,0,.21.16A.18.18,0,0,0,10,46.6a2.39,2.39,0,0,0,.35,0c.12,0,.1-.24.15-.22s.07,0,.06.14a.21.21,0,0,1-.09.2.49.49,0,0,0-.11.34.57.57,0,0,0,.15.31l0,.8-1.66-.82a.22.22,0,0,0-.12-.18.31.31,0,0,0-.33.11.24.24,0,0,0,.07.34.45.45,0,0,0,.2,0l1.8.91-.09,1.8-.18,0a.35.35,0,0,0-.34,0,3.15,3.15,0,0,0-.5.65c0,.1,0,.31.08.36s.83.2.83.2-.1.88-.11,2.24a5.87,5.87,0,0,0,.1,1.63c-.17,0-.1.05-.21.14s-.07.15-.15.18-.24.12-.24.26v.66c0,.18.26.22.31.26s.1.18.15.2l.34,0s.08.95.13,1.22a.81.81,0,0,0,.26.51,1.79,1.79,0,0,0,.67,0c.14,0,.14-.07.15-.28s0-1.4,0-1.4a.58.58,0,0,0,.29-.14s0,.29,0,.52a1,1,0,0,0,.1.38c0,.05,0,.28,0,.3s-.1.13-.09.25a.43.43,0,0,0,.07.22A1.15,1.15,0,0,0,12,59c0,.12.09.3.09.3a1.08,1.08,0,0,0-.05.27c0,.08.06.34.06.34a.56.56,0,0,0-.06.24,1.26,1.26,0,0,0,.05.21.43.43,0,0,0-.05.18.22.22,0,0,0,.07.16.24.24,0,0,0-.07.13.46.46,0,0,0,.05.14.5.5,0,0,0,0,.14,2.76,2.76,0,0,0,.06.4.25.25,0,0,0,.24.18.1.1,0,0,0,.12-.1h.24c0,.09.16.11.16.11s.14,0,.16-.1,0-.51,0-.51l.06,0v-.15l-.07,0V60.8l.09,0v-.18l-.09-.06v-.15l.1,0v-.23l-.1,0v-.2h.07v-.21h.31L13.63,66a3.14,3.14,0,0,0,.22,1.56,4.66,4.66,0,0,0,4,2.18,4.47,4.47,0,0,0,3.75-1.88,1.52,1.52,0,0,0,.42-1c0-.14.1-4.31.1-4.31l0-5.41a1.47,1.47,0,0,1,.28,0,1.81,1.81,0,0,1,0,.33h.21v.66a5.83,5.83,0,0,0,.08.58c0,.13.07.16.07.16h.92c.15,0,.15-.11.18-.25s.25-1.29.25-1.48,0-.93,0-1.06a7.22,7.22,0,0,1,.05-1c0-.46,0-2.89,0-2.89a3.43,3.43,0,0,1,1.19.6,1.76,1.76,0,0,0,1.37.36,1.89,1.89,0,0,0,1.76-.78A9.85,9.85,0,0,0,30,49.81c.3-.76.39-1.4.13-1.67s-1.64-.21-1.64-.21c0-.22-.15-.35-.43-.44a21.22,21.22,0,0,0-2.37-.05,1.3,1.3,0,0,0-.41.07l-.1.07v-.14a1.25,1.25,0,0,0,.09-.16.76.76,0,0,0,.11-.29,1.06,1.06,0,0,0,0-.29l.26,0v.11s.17.08.27.08.23,0,.24-.09-.06-.14-.06-.14c.23,0,.22-.08.22-.08l.08.14h.29a4.22,4.22,0,0,0,.64-.07,3.11,3.11,0,0,0,.53-.17.43.43,0,0,0,.3.07.35.35,0,0,0,.21-.15s.53-.12.72-.14a3.51,3.51,0,0,0,.41-.08,1.67,1.67,0,0,0,.19.52.27.27,0,0,0,.41,0c.08-.12-.08-.6-.08-.6l.05-.66s.06-.24,0-.32S29.73,45,29.5,45l-.66.06a12.57,12.57,0,0,0-.5-1.41.92.92,0,0,0-.59-.32,1.39,1.39,0,0,0-.37.08l-1.22-3a4.35,4.35,0,0,0-.43-.84s0-1.74,0-2a6.17,6.17,0,0,1,.1-.65l.16-.29a6,6,0,0,0,.13-1s.49,0,.66,0,.15-.08.15-.08a.34.34,0,0,1,.14,0c.05,0,.08-.18.08-.26s-.18-.11-.18-.11V35c.1,0,.26-.15.4-.27s.14-.36.19-1a13.11,13.11,0,0,0-.08-1.84c0-.11-.21-.31-.22-.39s-.18-.11-.18-.11-.53,0-.63,0a2.07,2.07,0,0,1-.26,0l0-.29s.26-.11.31-.2a.82.82,0,0,1,.14-.28c.06-.06.07-.32.07-.32a.47.47,0,0,0,.13,0c.08,0,.06-.23.06-.23l.1-.2a1.82,1.82,0,0,0,.05-.51s.18-.39.32-.67a15.08,15.08,0,0,1,.91-1.72,7.68,7.68,0,0,0,.92-1.75,18.11,18.11,0,0,0-.7-2.71,9,9,0,0,0-.36-1.17c.23-.07.23-.2.28-.24s.19-.09.28-.17.07-.29.07-.29a1.37,1.37,0,0,0,.17-.19,6.57,6.57,0,0,0,.34-.88c0-.11-.23-.33-.3-.44s-.58-.15-.58-.15c.07-.22.28-.48.29-.56S28,18,28,18s.71-.41.78-.48a3.42,3.42,0,0,0,0-1.14,9.66,9.66,0,0,0-.26-1.66,4.8,4.8,0,0,0-.83-.82l.48-.42a5.27,5.27,0,0,0,0-.65c-.05-.24-.32-1.17-.32-1.17s.22-.28.33-.31a1.85,1.85,0,0,1,.5.08l3.26.59c.23.13.31,0,.31,0a4.74,4.74,0,0,0,.78.12c.27,0,.38,0,.49-.5s-.16-.64-.16-.64,0-.39-.31-.39-.39.17-.39.17-4.36-.68-4.36-.74a1.23,1.23,0,0,0-.11-.27s0-.15,0-.34A.49.49,0,0,0,28,9.15c.07-.15,0-.34-.12-.36a.84.84,0,0,0-.3.05,7.21,7.21,0,0,0-1.44-.28V8.07a.34.34,0,0,0,.1-.21c0-.14,0-.39,0-.47a1.9,1.9,0,0,0,0-.32S27.78,5.23,28,5a2.9,2.9,0,0,1,1-.56c.38-.15,1-.48,1-.48h.77c.4,0,1.63.31,2.19.34a1.72,1.72,0,0,0,1.23-.39A9.46,9.46,0,0,0,35.32,2C35.56,1.52,35.65,1.25,35.58,1ZM10.75,44.33l-.23.22s0-.32-.1-.35-.18.2-.18.2l-.11,0v-.18H9.34s0-.45,0-.45a.41.41,0,0,0-.12-.14c-.07,0,0-.4.14-.69s.67-1.55.67-1.55l.17-.33a2.91,2.91,0,0,0,.06.62,1.54,1.54,0,0,0,.29.4s0,.33,0,.43,0,.42,0,.49.07,0,.07,0Zm15.36-1.76c.18.51.33,1,.33,1a.16.16,0,0,0-.15.17c0,.17,0,.55,0,.55a.69.69,0,0,0,.13.07s0,.11-.05.1h-1.1l-.09.06a2.57,2.57,0,0,0-.38-.29.56.56,0,0,0-.24,0s0-.23,0-.29.1-.09.11-.18a5.41,5.41,0,0,0,0-.63,1.12,1.12,0,0,0-.08-.45,1.06,1.06,0,0,1,0-.5.88.88,0,0,1,.05-.24s.33.13.48,0,.4-.63.4-.63A12.84,12.84,0,0,1,26.11,42.57Z"/>
</svg>