<svg xmlns="http://www.w3.org/2000/svg" viewBox="0 0 96.6 55">
<path d="M96.59,27.73c0-.1-2.13-5-2.2-5.09s-1.21-.78-1.21-.78a1.16,1.16,0,0,0,.29-.13,3.93,3.93,0,0,0,0-1.37c-.08-.09-.31-.11-.33-.21s.11-.07.11-.07a1.23,1.23,0,0,0,.82.2c.13-.07.13-.62.13-.64s.49-.26.58-.31a.53.53,0,0,0,.16-.21s1.46,0,1.56,0,0-.3-.19-.61-1.5-.49-1.5-.49,0,0-.16-.06a13.36,13.36,0,0,0-2.88-.6C89.75,17,89.62,17,89.62,17s.4-.33.48-.41a2.48,2.48,0,0,0,.19-.67c.14,0,.38-.33.48-.51a12.57,12.57,0,0,0,.43-1.58A1.14,1.14,0,0,0,91,13.4c-.07-.13-1-.26-1-.26a.2.2,0,0,0,0-.21,2.1,2.1,0,0,0-.62-.41,11.23,11.23,0,0,0-2.17-.33l2.29-1.11a6.7,6.7,0,0,0,1.34-1.14c.1-.13,0-.23-.13-.34s-.26,0-.38,0a8,8,0,0,0-.88.27.89.89,0,0,0-.43.3,6.22,6.22,0,0,1-.65.26l.84-.61a3.28,3.28,0,0,0,.48-.37c0-.06-.06-.23-.23-.32a3.65,3.65,0,0,0-1.26.25c-.25.08-.51.22-1.89.63s-2.71.9-2.71.9,0-.18-.7-.13a25.28,25.28,0,0,0-2.89.66c-1,.24-5,.81-5.08.85s-2.52.41-2.74.55-.24.38-.25.78a1.35,1.35,0,0,1-.43.85c-.16.18-1.22,1.27-1.62,1.71s-.78.9-.78.9L69.06,17a4.7,4.7,0,0,0-1.41.35,8.6,8.6,0,0,0-1.72.95,8.52,8.52,0,0,1-3.21.68A24.55,24.55,0,0,1,58,19,6.88,6.88,0,0,1,55,18.14a.84.84,0,0,0-.5-.08s-.16-.54-.26-.84-.23-.54-1-1.31-2-1.93-2.91-2.73a25,25,0,0,0-3.22-2.57,15.65,15.65,0,0,0-3-.48,13.1,13.1,0,0,0-2.8-.15,30.18,30.18,0,0,0-3.76.17,1.25,1.25,0,0,0-.74.53s-.09-.13-.17-.15-.32.15-.41.22-1.14.48-2.43,1.05-1.51.68-1.7.77-.2.31-.41.36-.47.51-.47.51l-2.86-.29.05-.22a.19.19,0,0,0,0-.14l.09,0c.05,0,.14-.24.14-.24h.54l.2-.3h.22s.2-.3.23-.36.09-.26.09-.26.07.06.13-.07a3.69,3.69,0,0,0,.15-.61,2.82,2.82,0,0,0,1.28.07c.31-.06.33-.25.33-.25a2.2,2.2,0,0,0,.3,0c.11,0,.11-.27.11-.27l0,0a.81.81,0,0,0,.8.12.72.72,0,0,0,.85-.58,1,1,0,0,0-.11-.61.78.78,0,0,0,.4-.62l.93-.08a1,1,0,0,0,.33,0,.43.43,0,0,0,.32-.16.86.86,0,0,0,.27,0,.83.83,0,0,0,.43-.64.66.66,0,0,0-.3-.55c-.12-.11-.54-.09-.54-.09a.49.49,0,0,0-.54,0l-.87,0a.82.82,0,0,0-.44-.73c0-.15-.23-.22-.37-.28s-.16-.14-.22-.22-.5-.14-.63-.15-.19.17-.19.17a2.74,2.74,0,0,0-.85.11.59.59,0,0,0-.43.43.51.51,0,0,0-.14.07c-.06.05-.05.3-.05.3l-.12.13s0-.52,0-.77-.08-.24,0-.3,0-.12-.15-.26a10.82,10.82,0,0,0-2.5.15c-.26.07-.38.24-.37.36s.12.63.16.87a1,1,0,0,0,.19.55,5.41,5.41,0,0,1,.31.66.5.5,0,0,0-.43.33.23.23,0,0,0-.06.19l.06.15-.33.06s0-.16-.45-.17a.94.94,0,0,0-.66.22c-.09,0-.17.07-.22.14s-.1.15-.05.21a.58.58,0,0,1,.08.19c-.25.14-.44.7-.44.7-1,.22-1.3,1.53-1.3,1.53l-.11-.09c-.06,0-.11.16-.11.27a.2.2,0,0,0,.09.17l-.15.47-1.65-.23a13.41,13.41,0,0,1-.57-1.63,2.38,2.38,0,0,1,.22-1.3.85.85,0,0,0,0-.77.42.42,0,0,0-.51-.19l-1.14.66-.31-.54s1.44-1,1.84-1.25.41-.46.5-1.09A2.21,2.21,0,0,1,23.33,5a18.78,18.78,0,0,1,1.88-1.64l.43,0a.9.9,0,0,0,.56-.15c.15-.14.95-.81,1.13-.95s.45-.35.47-.57-.05-.33-.34-.47S23.93,0,23.56,0a.61.61,0,0,0-.62.25L20.47,2.71a4.69,4.69,0,0,0-.21-1,2.69,2.69,0,0,0-1-.85c-.21-.07-.64.12-1.15.64A9.83,9.83,0,0,0,16.6,4.37a3.56,3.56,0,0,0-.23,1.24s-.33.57-.55,1a1.41,1.41,0,0,0,0,1c-.41.39-1.43,1.56-1.43,1.56l-1-1.2a1.48,1.48,0,0,0,.34-.69,1.07,1.07,0,0,0,.55,0,1.43,1.43,0,0,0,.68-.26,9.37,9.37,0,0,0-.5-2.42,27,27,0,0,0-.85-2.9c-.09-.13-.47,0-.95.28a11.41,11.41,0,0,0-1.73,2.76,2.44,2.44,0,0,0,.24,1.59A2.2,2.2,0,0,0,11.5,7a1.72,1.72,0,0,0,.18.58,2.8,2.8,0,0,0-.08.5,3.14,3.14,0,0,0,.32,1c.22.51.89,2,.89,2l-1.16,1.46c-.36.46-1.18,1.63-1.25,1.76s-.06.4.06.4a2.23,2.23,0,0,0,.68-.51,7.42,7.42,0,0,1,1.09-.62,1.47,1.47,0,0,1,.6,0l.13.27s-1.78,1.36-2.74,2.12a27.13,27.13,0,0,0-3.47,3.9,18.88,18.88,0,0,0-1.39,2.24.53.53,0,0,0,.18.51,6.13,6.13,0,0,0,1,.18,3.49,3.49,0,0,0-.19.48c0,.19-.28.94-.28.94l.23.32a4.1,4.1,0,0,0,1,.15,14.67,14.67,0,0,1,2.33.5A33.16,33.16,0,0,1,13.18,27a34.24,34.24,0,0,0-3.55.63,17.73,17.73,0,0,0-5,2.07c-.54.31-.65.53,0,.53s.83.14.83.14a12.06,12.06,0,0,0-4.22,4.95,13.17,13.17,0,0,0,3,15.29c2.28,2.06,6.14,4.15,9.85,3.73s5.77-1.16,8-3a13.26,13.26,0,0,0,4.05-5.87,16.61,16.61,0,0,0,.64-3.53l.52.06s.16,2.19.18,2.35.26,3.83.27,4a.42.42,0,0,0,.24.31,2.43,2.43,0,0,0,.77.1c.42,0,5.5.26,5.78.28a2.3,2.3,0,0,0,.83-.06c.15-.07,1.17-.73,1.17-.73l4.66.06v.27c0,.13.12.17.3.18s.12-.1.2-.11.11.17.17.15,2,0,2,0a1,1,0,0,0,.51,0,2.36,2.36,0,0,0,.45,0s3.64.09,3.91,0,.26-.47.26-.47l.38,0a.62.62,0,0,1,.43.15c.09.08,0,.26,0,.59s.18.38.39.39a1.51,1.51,0,0,0,.32,0s.05,0,.18,0,1.46,0,1.64,0,.27-.08.36-.08.16.09.3.07,1,0,1.26,0,.31-.14.42-.14h.47c.23,0,.25.08.44.08s1.83,0,2,0,.22-.07.33-.08.17.08.31.08,1.47,0,2.11-.07.69-.09,1-.41.24-1,.27-1.17.08-.17.1-.26a.48.48,0,0,0,0-.27.19.19,0,0,1-.05-.12,3.13,3.13,0,0,0,1.66-.28c.37-.27.67-.43.74-.5a.7.7,0,0,0,.08-.42,3.27,3.27,0,0,0-.14-.77c-.06-.18-.17-.28-.25-.19a2,2,0,0,1-.41.3c-.22.16-.58.41-.81.59a2.85,2.85,0,0,1-1,.22c0-.3-.1-1.25-.1-1.25a1.11,1.11,0,0,0,.33-.25c.2-.2.13-.62.17-.7s0-.21.12-.21.13.21.37.21.29-.12.4-.09.08.19.28.25.27,0,.4,0,.17.22.37.24.31-.2.45,0a.43.43,0,0,0,.39.15A12.46,12.46,0,0,0,65.46,47a13.75,13.75,0,0,0,6,6.39,15.62,15.62,0,0,0,12.53.5,14.27,14.27,0,0,0,7.72-8.22,13.69,13.69,0,0,0-.6-10.66,14.21,14.21,0,0,0-5.76-6.12,15.2,15.2,0,0,0-4.65-1.57,19.44,19.44,0,0,0-4.51,0,12.25,12.25,0,0,0-2.85.8c-.56.23-.49.18-.35.06s.82-.72.93-.83a1,1,0,0,1,.3-.18,4.08,4.08,0,0,0,.64-.76c.09-.14-.14-.13-.34,0a3.4,3.4,0,0,1-.67.24c-.19,0-.72.18-2.16.67s-3.53,1.31-3.53,1.31-.09-.47-.22-1a4.93,4.93,0,0,0-.32-1l2.49-1.44h.21A5.14,5.14,0,0,0,71.64,25c.56-.19,2.79-1.16,2.79-1.16s1.3-.52,1.44-.6a2.48,2.48,0,0,1,.45-.27,6.34,6.34,0,0,0,.71-.37,6.72,6.72,0,0,1,1-.82c.34-.16,3.58-1.45,3.58-1.45H82a2.18,2.18,0,0,0,.43-.08l1.8-.76.32.05a1.24,1.24,0,0,0-.27,1,1.4,1.4,0,0,0,1.38,1.24,1.46,1.46,0,0,0,1.52,1.11,1.51,1.51,0,0,0,1.46-1.4,1.49,1.49,0,0,0-.44-1.22l.76.32,1.39,2L93,26.24s2.32,3.32,2.48,3.5.18.1.25,0a1.1,1.1,0,0,0,0-.62c-.06-.23-.94-2.45-.94-2.45s1.72,1.32,1.79,1.3S96.6,27.83,96.59,27.73ZM10.54,37.59a.31.31,0,0,0,0,.27,3.36,3.36,0,0,1,0,1c0,.15-.07.19-.23.3a1.66,1.66,0,0,1-.63.17H9.32a2.17,2.17,0,0,1-.14-.45,1,1,0,0,1,.09-.55,5.36,5.36,0,0,1,.24-.57,1.55,1.55,0,0,1,.61-.24A.93.93,0,0,1,10.54,37.59ZM4.93,39.23c0-.19.15-.51.15-.6s-.07-.13,0-.3.28-.61.35-.78.11-.32.19-.47.12,0,.37-.45A6.67,6.67,0,0,1,7,35.3a16.71,16.71,0,0,1,1.47-1.22l.4-.26.93,1.33s-.69.54-1,.87a8.65,8.65,0,0,0-1.87,2.06,6.88,6.88,0,0,0-.95,3,10.55,10.55,0,0,1-1-1.15A1.18,1.18,0,0,1,4.93,39.23ZM5,43.06c-.17-.74-.28-1.53-.28-1.53,0-.35.13-.59.38-.41s.78.71.78.71a8,8,0,0,0,.39,2.08,7.15,7.15,0,0,0,.56,1.15,4,4,0,0,1-1.16-.27A6.72,6.72,0,0,1,5,43.06Zm11.44,6a6,6,0,0,1-2.18.57,9.28,9.28,0,0,1-4.57-.87,7.2,7.2,0,0,1-3.07-2.46c-.12-.18-.19-.38-.12-.5s.31-.13.47-.13h.26a7.13,7.13,0,0,0,7.44,2.75,7.1,7.1,0,0,0,2.42-1.11A14.8,14.8,0,0,1,16.48,49.09Zm.9-4.62c-.2.12-.53.41-.69.39s-.51,0-.54-.18a2.26,2.26,0,0,1,0-.52c0-.18.08-.62.08-.62a4.65,4.65,0,0,0,.57.36c.21.12.53.21.58.15s.32-.11.32-.11A1.22,1.22,0,0,1,17.38,44.47Zm2.94,2c-.23.27-.56.59-.89.94a7,7,0,0,1-1.16.93c-.34.24-.46.3-.57.2a.52.52,0,0,1-.08-.54c.07-.22.35-1.32.35-1.32A10.44,10.44,0,0,0,19,45.2s.61-.81.62-.84.11,0,.25.24a3.77,3.77,0,0,1,.56,1A.86.86,0,0,1,20.32,46.43Zm1.48-3.2c-.21.9-.42,1.53-.64,1.61s-.31-.1-.4-.22l-.42-.57a1,1,0,0,0,.31-.42c.06-.23.11-.54.11-.54L20.9,43s.35,0,.43-.22.17-.82.24-.94a1.41,1.41,0,0,1,.18-.23s.14,0,.12-.19,0-.38-.18-.37-.2-.1-.21-.21-.11-.67-.15-.79,0-.13,0-.22-.08-.17,0-.29.19-.13.16-.34a.84.84,0,0,0-.28-.63c-.2-.13-.38-.08-.38-.26a3.22,3.22,0,0,0-.14-.92c-.09-.25-.14-.38-.06-.39h.14a10.72,10.72,0,0,1,1,2.58A10.1,10.1,0,0,1,21.8,43.23Zm41.77-12.3c-.18.28,0,.25-.35.45S59.37,32.86,59,33s-.35.06-.43-.12-.26-.32-.22-.4a.66.66,0,0,0,0-.2c0-.05-.08-.13.08-.2l.38-.14a.37.37,0,0,0,.22,0l.27-.09a.23.23,0,0,1,.08-.18,18.38,18.38,0,0,1,2.89-1.05c.93-.18,1.67-.25,1.67-.14S63.75,30.65,63.57,30.93Zm2.72-1.49-1.39-1c-.12-.06-.18-.18,0-.27l1.5-.77c.07-.05.1.13.11.26s.41,1.5.41,1.5Zm6.45,18.15c-.25,0-.33-.16-.78-.56a6.52,6.52,0,0,1-.88-1,.6.6,0,0,0,.32.15c.16,0,.16-.11.31-.07s.15.18.34.21.25-.08.36-.07.12.22.33.25.29-.1.41-.06.09.21.31.22.25-.09.37-.07.15.24.36.27.4,0,.49,0-.41.33-.72.43A5.19,5.19,0,0,1,72.74,47.59Zm14-4.24a8,8,0,0,1-.27.88c-.18.42-1,1.75-1.11,2a.53.53,0,0,1-.48.29c-.16,0-.28-.21-.31-.34S84.36,44,84.36,44a.34.34,0,0,0,.22-.25c.06-.22-.1-.28,0-.43s.19-.07.22-.32-.12-.26-.12-.42.16-.2.16-.38-.16-.22-.16-.38.06-.11.07-.31-.23-.36-.15-.37a2.64,2.64,0,0,1,1.16.55c.63.45,1,.8,1.05,1A1.18,1.18,0,0,1,86.7,43.35Zm-6.63-9a.22.22,0,0,0,.12,0s0-.16.06-.21-.11-.25-.11-.25a3.72,3.72,0,0,1,1.26-.67,5.48,5.48,0,0,1,2.5,1.32A8.54,8.54,0,0,1,86.46,38,8.15,8.15,0,0,1,87,40.9c0,.47-.3.42-.4.42a3.38,3.38,0,0,1-.91-.59c-.39-.3-1.65-1.08-1.65-1.08a.64.64,0,0,0-.06-.44c-.12-.18-.31-.18-.38-.25s0-.18-.16-.32-.33-.13-.36-.23a1.23,1.23,0,0,0-.11-.23,5,5,0,0,0-.69-1s.78,0,1.21-.08a2.53,2.53,0,0,0,1-.27,1.6,1.6,0,0,0,.55-.33c0-.06,0-.17-.22-.19s-1.26-.16-2-.21a17.22,17.22,0,0,1-2.07-.27,2.74,2.74,0,0,1-.28-.16.38.38,0,0,1,.1-.1c.07,0,0-.28,0-.36a1.85,1.85,0,0,0-.16-.31.75.75,0,0,0-.31-.24c-.08,0-.12-.18-.12-.18Zm2.47,10.06c0,.08-.14.24-.44.6a8.07,8.07,0,0,1-1.36,1c-.14.09-.42.11-.47,0a2.05,2.05,0,0,1-.06-.56,7.4,7.4,0,0,0,.8-.46,8.6,8.6,0,0,0,1.09-.94s0,0,.24,0A.26.26,0,0,1,82.54,44.44ZM78.14,46l.56-.06c.09,0,.14.11.17.19a.25.25,0,0,1-.14.32,4.12,4.12,0,0,1-1-.13Zm-2.25,1.26s.13-.07.17,0a.36.36,0,0,0,.34.16c.19,0,.27-.05.33,0s.15.24.29.27.33-.1.42,0,.14.22.35.25.28-.16.41-.12.22.18.4.22.27-.13.4-.11.21.18.4.16.3-.23.42-.24.18.12.38.09.24-.18.34-.2.23.11.43,0,.17-.24.3-.3.23.08.38,0,.15-.25.27-.32.29-.07.4-.14.05-.32.2-.4.27,0,.41-.11.11-.3.2-.36.27,0,.37-.16,0-.36.11-.44a.18.18,0,0,1,.13-.08s.12,1.55.08,1.86,0,.51-.79,1a8.86,8.86,0,0,1-8.47.66c-.59-.21-.66-.43-.65-.6s.25-.27.49-.36,1.31-.62,1.31-.62A.42.42,0,0,0,75.89,47.26Zm-2.52-3.6a9.53,9.53,0,0,0,.78.88c.17.11.1.1-.47-.07a14.29,14.29,0,0,1-3.09-1.31S72.53,43.55,73.37,43.66Zm-3,.49c.1-.08.22-.13.62,0s3.33,1.51,3.68,1.68.54.34.58.49-.09-.15-.28-.14-.16.08-.31.06-.22-.17-.4-.22-.22.06-.33,0-.18-.19-.37-.24-.24.09-.37,0-.22-.2-.33-.22-.28.1-.42,0-.18-.22-.33-.24-.16.08-.3.06-.17-.17-.35-.22-.24.1-.34.08-.12-.19-.23-.23a.48.48,0,0,0-.27,0,5.33,5.33,0,0,1-.32-.61A.33.33,0,0,1,70.34,44.15Z"/>
</svg>